<svg width="89" height="181" viewBox="0 0 89 181" fill="none" xmlns="http://www.w3.org/2000/svg">
<path d="M88.967 5.05608V128.897C88.9124 129.929 88.6141 130.934 88.0966 131.83C87.579 132.725 86.8569 133.485 85.9893 134.048L6.81977 179.768C6.51444 179.957 6.16223 180.055 5.80347 180.053C5.67857 180.068 5.55235 180.068 5.42745 180.053C5.33925 180.033 5.25389 180.002 5.17337 179.961L5.01076 179.88L4.83799 179.758C4.7792 179.716 4.72473 179.669 4.67538 179.616C4.44201 179.394 4.25541 179.128 4.12659 178.834C3.91887 178.359 3.81159 177.847 3.81152 177.33V54.0986C3.87016 53.067 4.17013 52.0635 4.68731 51.1688C5.20448 50.2742 5.92444 49.5133 6.78928 48.9475L85.9588 3.31871C86.2503 3.1119 86.5884 2.98047 86.9431 2.93615C87.2978 2.89182 87.6579 2.93599 87.9914 3.06471C88.0804 3.10791 88.1654 3.15891 88.2454 3.21711C88.5071 3.44113 88.7098 3.72598 88.8356 4.04663C88.9614 4.36728 89.0065 4.71392 88.967 5.05608Z" fill="#455A64"/>
<path d="M87.3105 3.93861C87.4058 3.93429 87.5004 3.95533 87.5849 3.99957H87.6357C87.6357 3.99957 87.9508 4.26373 87.9508 5.01557V128.897C87.8975 129.751 87.6468 130.581 87.2182 131.321C86.7897 132.062 86.1951 132.693 85.4812 133.164L6.3218 178.884C6.17781 178.974 6.01359 179.027 5.84414 179.037H5.67137H5.62055L5.53926 178.976H5.47827L5.42747 178.925C5.30064 178.795 5.19746 178.644 5.12257 178.478C4.97446 178.135 4.89836 177.765 4.89899 177.391V54.0988C4.96126 53.2471 5.21583 52.4207 5.64358 51.6816C6.07132 50.9425 6.6611 50.31 7.36858 49.8315L86.5381 4.20277C86.7813 4.04512 87.0617 3.95403 87.3511 3.93861H87.3105ZM87.3511 2.92261C86.8837 2.93685 86.4281 3.07348 86.03 3.31885L6.86043 48.9476C5.99559 49.5135 5.27564 50.2743 4.75846 51.169C4.24128 52.0636 3.94132 53.0671 3.88269 54.0988V177.239C3.88275 177.756 3.99002 178.268 4.19774 178.742C4.32656 179.037 4.51316 179.303 4.74653 179.525C4.79588 179.577 4.85035 179.625 4.90914 179.667L5.08191 179.789L5.24452 179.87C5.32504 179.911 5.41041 179.942 5.4986 179.961C5.6235 179.976 5.74972 179.976 5.87462 179.961C6.20871 179.948 6.53396 179.85 6.81979 179.677L85.9893 133.957C86.857 133.394 87.5791 132.634 88.0966 131.738C88.6142 130.843 88.9124 129.838 88.967 128.806V5.05622C88.9998 4.72059 88.9514 4.38201 88.8258 4.06903C88.7002 3.75605 88.5012 3.47785 88.2455 3.25789C87.9758 3.05733 87.6465 2.95352 87.3105 2.96324L87.3511 2.92261Z" fill="#455A64"/>
<g opacity="0.8">
<path opacity="0.8" d="M88.967 5.05608V128.897C88.9124 129.929 88.6141 130.934 88.0966 131.83C87.579 132.725 86.8569 133.485 85.9893 134.048L6.81977 179.768C6.51444 179.957 6.16223 180.055 5.80347 180.053C5.67857 180.068 5.55235 180.068 5.42745 180.053C5.33925 180.033 5.25389 180.002 5.17337 179.961L5.01076 179.88L4.83799 179.758C4.7792 179.716 4.72473 179.669 4.67538 179.616C4.44201 179.394 4.25541 179.128 4.12659 178.834C3.91887 178.359 3.81159 177.847 3.81152 177.33V54.0986C3.87016 53.067 4.17013 52.0635 4.68731 51.1688C5.20448 50.2742 5.92444 49.5133 6.78928 48.9475L85.9588 3.31871C86.2503 3.1119 86.5884 2.98047 86.9431 2.93615C87.2978 2.89182 87.6579 2.93599 87.9914 3.06471C88.0804 3.10791 88.1654 3.15891 88.2454 3.21711C88.5071 3.44113 88.7098 3.72598 88.8356 4.04663C88.9614 4.36728 89.0065 4.71392 88.967 5.05608Z" fill="#455A64"/>
</g>
<path d="M87.9914 3.02412C87.658 2.8954 87.2978 2.85123 86.9432 2.89556C86.5885 2.93988 86.2503 3.07131 85.9588 3.27812L6.78929 48.9069C5.92445 49.4728 5.20449 50.2336 4.68732 51.1283C4.17014 52.0229 3.87017 53.0264 3.81153 54.058V63.7812L0.020752 61.5562V51.9041C0.0750181 50.874 0.372148 49.8713 0.887882 48.9779C1.40362 48.0844 2.12334 47.3255 2.98834 46.7631L82.168 1.13435C82.4745 0.905893 82.8393 0.7685 83.2204 0.737948C83.6015 0.707396 83.9836 0.784925 84.3226 0.961629C84.8917 1.31723 87.3613 2.73964 87.9914 3.02412Z" fill="#4CAF4F"/>
<path d="M88.967 5.05612C88.967 3.17651 87.6255 2.42466 85.9893 3.36955L6.81976 48.9983C5.95645 49.5625 5.23802 50.3218 4.7225 51.2149C4.20698 52.108 3.90885 53.1098 3.85217 54.1393V63.8625L88.967 14.7793V5.05612Z" fill="#4CAF4F"/>
<g opacity="0.4">
<path opacity="0.4" d="M85.9892 3.31878L6.81973 48.9475C5.94835 49.5001 5.22875 50.2615 4.72616 51.1624L0.955688 48.9679C1.43702 48.0847 2.13684 47.3396 2.98828 46.8038L82.1578 1.17501C82.4678 0.950516 82.8333 0.814843 83.2147 0.782617C83.5962 0.750391 83.9792 0.822832 84.3225 0.992132C84.851 1.32741 87.3206 2.7295 87.9507 3.02414C87.6242 2.91173 87.2754 2.87982 86.9339 2.93112C86.5924 2.98242 86.2683 3.11541 85.9892 3.31878Z" fill="white"/>
</g>
<path opacity="0.15" d="M0.0410156 61.6069V51.9447C0.0829553 50.8899 0.398123 49.8642 0.955678 48.9678L4.73631 51.1522C4.19027 52.0445 3.88559 53.0633 3.85214 54.1088V63.8218L0.0410156 61.6069Z" fill="#103E13"/>
<path d="M71.0498 16.09C70.5147 16.5132 70.085 17.0544 69.794 17.6713C69.5031 18.2883 69.359 18.9641 69.3729 19.646C69.3729 21.0684 70.1249 21.7999 71.0498 21.2614C71.583 20.8367 72.0115 20.2952 72.3023 19.6786C72.593 19.0621 72.7382 18.387 72.7267 17.7054C72.7267 16.2322 71.9746 15.5515 71.0498 16.09Z" fill="#455A64"/>
<path d="M77.0967 12.5846C76.5635 13.0094 76.1349 13.5509 75.8442 14.1675C75.5534 14.784 75.4083 15.4591 75.4198 16.1406C75.4198 17.5732 76.1719 18.2946 77.0967 17.7662C77.633 17.3436 78.0643 16.8027 78.357 16.1858C78.6496 15.569 78.7957 14.8928 78.7838 14.2102C78.7838 12.7776 78.0317 12.0563 77.0967 12.5846Z" fill="#455A64"/>
<path d="M83.1437 9.12025C82.6105 9.545 82.1819 10.0865 81.8912 10.7031C81.6004 11.3196 81.4553 11.9947 81.4668 12.6763C81.4668 14.1088 82.2189 14.8302 83.1437 14.2917C83.6818 13.8706 84.1144 13.33 84.4072 12.7128C84.7 12.0956 84.845 11.4187 84.8308 10.7357C84.8308 9.2828 84.0787 8.55128 83.1437 9.12025Z" fill="#455A64"/>
<path d="M4.93959 179.738L4.56357 179.524C4.26754 179.336 3.96227 179.164 3.64891 179.006L3.15092 178.722L2.37854 178.275L1.71794 177.899L1.35207 177.696C1.15506 177.599 0.981615 177.46 0.843925 177.289C0.675359 177.11 0.537963 176.904 0.437414 176.68C0.212429 176.189 0.0979407 175.655 0.102035 175.115V61.5967L3.89281 63.8217V177.238C3.91125 177.754 4.0178 178.262 4.20786 178.742C4.33668 179.037 4.52329 179.303 4.75667 179.524C4.79842 179.584 4.85426 179.633 4.91928 179.667L4.93959 179.738Z" fill="#37474F"/>
<path d="M11.2915 67.9468C11.2962 67.8044 11.3345 67.6652 11.4033 67.5404L12.9887 64.2485C13.0051 64.213 13.0294 64.1817 13.0599 64.1571C13.0684 64.1482 13.0787 64.1411 13.09 64.1362C13.1014 64.1314 13.1136 64.1289 13.1259 64.1289C13.1383 64.1289 13.1505 64.1314 13.1618 64.1362C13.1732 64.1411 13.1835 64.1482 13.192 64.1571C13.2281 64.1993 13.2464 64.254 13.2428 64.3095V65.417C13.2552 65.5318 13.2552 65.6476 13.2428 65.7624C13.2428 65.8437 13.1818 65.9453 13.131 66.057L12.2875 67.7944L13.131 68.5666C13.1775 68.6176 13.2153 68.676 13.2428 68.7393C13.2574 68.8404 13.2574 68.943 13.2428 69.0441V70.0804C13.2404 70.1575 13.2232 70.2334 13.192 70.3039C13.1618 70.3653 13.1163 70.4178 13.0599 70.4563C13.0599 70.4563 13.0599 70.4563 12.9887 70.4563L11.4236 69.0644C11.3839 69.0314 11.353 68.9891 11.3335 68.9412C11.314 68.8934 11.3065 68.8415 11.3118 68.7901L11.2915 67.9468Z" fill="#4CAF4F"/>
<path d="M17.1047 59.7071C17.1297 59.5949 17.1672 59.4859 17.2165 59.382C17.2694 59.28 17.3505 59.1954 17.4502 59.1382L18.0499 58.7927C18.0499 58.7927 18.1413 58.7927 18.1718 58.7927C18.192 58.8121 18.2072 58.8361 18.216 58.8627C18.2249 58.8892 18.2271 58.9175 18.2226 58.9451C18.2276 58.9856 18.2276 59.0266 18.2226 59.0671L15.4888 70.68C15.4636 70.7889 15.4261 70.8945 15.377 70.9949C15.327 71.1074 15.2413 71.2003 15.1331 71.2591L14.5639 71.5944C14.5464 71.6076 14.525 71.6147 14.503 71.6147C14.481 71.6147 14.4596 71.6076 14.442 71.5944C14.421 71.5731 14.4047 71.5476 14.3942 71.5196C14.3837 71.4916 14.3792 71.4617 14.381 71.4318C14.3777 71.3912 14.3777 71.3505 14.381 71.3099L17.1047 59.7071Z" fill="#4CAF4F"/>
<path d="M21.3122 62.9684C21.3075 63.114 21.2692 63.2566 21.2004 63.385L19.6149 66.6666L19.5438 66.7682C19.5241 66.7809 19.5012 66.7877 19.4778 66.7877C19.4543 66.7877 19.4314 66.7809 19.4117 66.7682C19.3922 66.7158 19.3922 66.6581 19.4117 66.6057V65.4982C19.3987 65.3869 19.3987 65.2743 19.4117 65.163C19.4426 65.0577 19.4834 64.9557 19.5336 64.8582L20.367 63.1208L19.5336 62.3588C19.4831 62.3089 19.4418 62.2504 19.4117 62.1861C19.3971 62.085 19.3971 61.9824 19.4117 61.8813V60.7738C19.3986 60.6999 19.3986 60.6243 19.4117 60.5503C19.4418 60.489 19.4874 60.4365 19.5438 60.3979C19.5542 60.3905 19.5666 60.3865 19.5794 60.3865C19.5921 60.3865 19.6046 60.3905 19.6149 60.3979L21.2004 61.8508C21.2402 61.886 21.2711 61.9301 21.2906 61.9796C21.31 62.029 21.3174 62.0824 21.3122 62.1353V62.9684Z" fill="#4CAF4F"/>
<path d="M25.7229 62.2167C25.7461 62.1986 25.7747 62.1887 25.8042 62.1887C25.8336 62.1887 25.8622 62.1986 25.8855 62.2167C25.9312 62.274 25.9531 62.3468 25.9464 62.4199V63.6289C25.9457 63.7237 25.925 63.8171 25.8855 63.9033C25.8477 63.9798 25.7919 64.046 25.7229 64.0963L24.981 64.523C24.9603 64.5423 24.933 64.553 24.9047 64.553C24.8764 64.553 24.8492 64.5423 24.8285 64.523C24.8021 64.4989 24.7818 64.4688 24.7694 64.4352C24.757 64.4016 24.7529 64.3655 24.7574 64.33V63.1108C24.7566 63.0147 24.7812 62.9201 24.8285 62.8365C24.8568 62.7598 24.9106 62.6952 24.981 62.6536L25.7229 62.2167Z" fill="#4CAF4F"/>
<path d="M28.2331 60.7738C28.2548 60.7565 28.2817 60.7471 28.3094 60.7471C28.3371 60.7471 28.364 60.7565 28.3856 60.7738C28.4314 60.8312 28.4532 60.904 28.4466 60.977V62.1861C28.4459 62.2808 28.4251 62.3743 28.3856 62.4604C28.3573 62.537 28.3035 62.6016 28.2331 62.6433L27.4811 63.0801C27.4594 63.0975 27.4326 63.1069 27.4049 63.1069C27.3772 63.1069 27.3503 63.0975 27.3286 63.0801C27.2829 63.0228 27.261 62.95 27.2676 62.8769V61.6679C27.2684 61.5732 27.2891 61.4797 27.3286 61.3936C27.3594 61.3157 27.4124 61.2485 27.4811 61.2005L28.2331 60.7738Z" fill="#4CAF4F"/>
<path d="M30.7333 59.3311C30.7556 59.3111 30.7846 59.3 30.8146 59.3C30.8446 59.3 30.8735 59.3111 30.8959 59.3311C30.9187 59.3574 30.9359 59.3881 30.9464 59.4213C30.9569 59.4545 30.9605 59.4895 30.9568 59.5241V60.7434C30.9561 60.8381 30.9353 60.9316 30.8959 61.0177C30.8612 61.0935 30.8046 61.1572 30.7333 61.2006L29.9914 61.6374C29.9697 61.6548 29.9428 61.6642 29.9151 61.6642C29.8874 61.6642 29.8605 61.6548 29.8389 61.6374C29.8123 61.6113 29.792 61.5793 29.7797 61.5441C29.7674 61.5089 29.7633 61.4713 29.7678 61.4342V60.2252C29.767 60.1291 29.7916 60.0345 29.8389 59.9509C29.8697 59.873 29.9227 59.8058 29.9914 59.7578L30.7333 59.3311Z" fill="#4CAF4F"/>
<path d="M11.9623 76.8065L63.2548 47.2204C63.6816 46.9766 64.0373 47.1493 64.0373 47.6167C64.0176 47.8795 63.9366 48.134 63.8006 48.3599C63.6647 48.5857 63.4778 48.7766 63.2548 48.9172L11.9928 78.5032C11.5558 78.7572 11.2102 78.5845 11.2102 78.107C11.2257 77.8467 11.3018 77.5936 11.4324 77.3678C11.5629 77.142 11.7444 76.9498 11.9623 76.8065Z" fill="#4CAF4F"/>
<path d="M23.7412 90.4005L75.0032 60.8144C75.43 60.5706 75.7857 60.7433 75.7857 61.2107C75.766 61.4749 75.685 61.7308 75.5491 61.9583C75.4133 62.1858 75.2264 62.3785 75.0032 62.5213L23.7412 92.1074C23.3041 92.3512 22.9586 92.1785 22.9586 91.7111C22.976 91.4463 23.056 91.1894 23.192 90.9616C23.3281 90.7337 23.5163 90.5414 23.7412 90.4005Z" fill="#C8E6C9"/>
<path d="M23.7412 97.2078L55.8561 78.6759C56.2931 78.4219 56.6387 78.5946 56.6387 79.0722C56.6197 79.3352 56.539 79.59 56.403 79.816C56.2671 80.042 56.0797 80.2327 55.8561 80.3726L23.7412 98.9045C23.3041 99.1484 22.9586 98.9757 22.9586 98.5083C22.9759 98.2449 23.056 97.9894 23.1921 97.7632C23.3282 97.5369 23.5165 97.3465 23.7412 97.2078Z" fill="#C8E6C9"/>
<path d="M23.7412 104.005L55.8561 85.473C56.2931 85.219 56.6387 85.4019 56.6387 85.8692C56.6197 86.1322 56.539 86.3871 56.403 86.6131C56.2671 86.839 56.0797 87.0298 55.8561 87.1697L23.7412 105.702C23.3041 105.956 22.9586 105.773 22.9586 105.305C22.9759 105.042 23.056 104.786 23.1921 104.56C23.3282 104.334 23.5165 104.144 23.7412 104.005Z" fill="#C8E6C9"/>
<path d="M66.3037 45.4627L80.9282 36.9892C81.3652 36.7454 81.7107 36.9181 81.7107 37.3855C81.6934 37.6503 81.6134 37.9071 81.4773 38.135C81.3413 38.3628 81.1531 38.5552 80.9282 38.6961L66.3037 47.1696C65.8667 47.4134 65.5211 47.2407 65.5211 46.7733C65.5385 46.5086 65.6185 46.2517 65.7545 46.0238C65.8906 45.796 66.0788 45.6037 66.3037 45.4627Z" fill="#4CAF4F"/>
<path d="M24.6355 144.361L63.2548 122.008C63.6816 121.754 64.0373 121.937 64.0373 122.405C64.016 122.667 63.9343 122.921 63.7986 123.147C63.6628 123.372 63.4767 123.563 63.2548 123.705L24.6355 146.057C24.1985 146.301 23.8529 146.128 23.8529 145.661C23.8734 145.398 23.9548 145.144 24.0906 144.918C24.2265 144.693 24.413 144.502 24.6355 144.361Z" fill="#4CAF4F"/>
<path d="M66.3037 120.241L80.8875 111.737C81.3245 111.483 81.6701 111.666 81.6701 112.133C81.6528 112.396 81.5727 112.652 81.4366 112.878C81.3005 113.104 81.1122 113.295 80.8875 113.433L66.3037 121.897C65.8667 122.151 65.5211 121.968 65.5211 121.5C65.5462 121.245 65.6298 120.998 65.7655 120.779C65.9012 120.561 66.0853 120.377 66.3037 120.241Z" fill="#4CAF4F"/>
<path d="M31.1906 120.058L80.8876 91.4065C81.3246 91.1626 81.6701 91.3353 81.6701 91.8027C81.6527 92.0675 81.5728 92.3244 81.4367 92.5522C81.3007 92.7801 81.1125 92.9724 80.8876 93.1133L31.1906 121.765C30.7638 122.009 30.4081 121.836 30.4081 121.358C30.4294 121.096 30.5111 120.842 30.6468 120.616C30.7826 120.391 30.9687 120.2 31.1906 120.058Z" fill="#4CAF4F"/>
<path d="M18.7206 134.292L80.8875 98.2036C81.3245 97.9597 81.6701 98.1325 81.6701 98.5998C81.6527 98.8646 81.5727 99.1215 81.4367 99.3494C81.3006 99.5772 81.1124 99.7695 80.8875 99.9105L18.7206 135.989C18.2938 136.243 17.9381 136.06 17.9381 135.593C17.9578 135.33 18.0389 135.075 18.1748 134.849C18.3107 134.623 18.4976 134.433 18.7206 134.292Z" fill="#4CAF4F"/>
<path d="M21.6476 139.281L63.2547 115.201C63.6816 114.957 64.0373 115.13 64.0373 115.598C64.0175 115.862 63.9366 116.118 63.8007 116.345C63.6649 116.573 63.478 116.765 63.2547 116.908L21.678 140.987C21.241 141.231 20.8955 141.059 20.8955 140.591C20.9095 140.329 20.9848 140.074 21.1155 139.846C21.2461 139.619 21.4283 139.425 21.6476 139.281Z" fill="#E8F5E9"/>
<path d="M18.7206 127.241L26.9425 122.496C27.3693 122.242 27.725 122.425 27.725 122.892C27.7053 123.155 27.6243 123.41 27.4884 123.636C27.3525 123.861 27.1655 124.052 26.9425 124.193L18.7206 128.938C18.2938 129.192 17.9381 129.009 17.9381 128.541C17.9554 128.278 18.0355 128.022 18.1716 127.796C18.3077 127.57 18.496 127.38 18.7206 127.241Z" fill="#4CAF4F"/>
<path d="M11.9622 83.6239L47.9188 62.8568C48.3558 62.6028 48.7115 62.7856 48.7115 63.253C48.6923 63.5172 48.6104 63.7729 48.4725 63.9991C48.3346 64.2253 48.1448 64.4153 47.9188 64.5535L11.9622 85.3206C11.5252 85.5746 11.1797 85.3917 11.1797 84.9244C11.197 84.661 11.2771 84.4055 11.4132 84.1792C11.5493 83.953 11.7376 83.7626 11.9622 83.6239Z" fill="#4CAF4F"/>
<path opacity="0.6" d="M11.9622 83.6239L47.9188 62.8568C48.3558 62.6028 48.7115 62.7856 48.7115 63.253C48.6923 63.5172 48.6104 63.7729 48.4725 63.9991C48.3346 64.2253 48.1448 64.4153 47.9188 64.5535L11.9622 85.3206C11.5252 85.5746 11.1797 85.3917 11.1797 84.9244C11.197 84.661 11.2771 84.4055 11.4132 84.1792C11.5493 83.953 11.7376 83.7626 11.9622 83.6239Z" fill="white"/>
<path d="M11.9622 90.4006L19.2288 86.2045C19.6556 85.9505 20.0113 86.1232 20.0113 86.6007C19.99 86.8631 19.9083 87.1171 19.7726 87.3427C19.6368 87.5683 19.4507 87.7595 19.2288 87.9012L11.9622 92.0973C11.5252 92.3513 11.1797 92.1684 11.1797 91.7011C11.197 91.4376 11.2771 91.1822 11.4132 90.9559C11.5493 90.7297 11.7376 90.5393 11.9622 90.4006Z" fill="#4CAF4F"/>
<path opacity="0.6" d="M11.9622 90.4006L19.2288 86.2045C19.6556 85.9505 20.0113 86.1232 20.0113 86.6007C19.99 86.8631 19.9083 87.1171 19.7726 87.3427C19.6368 87.5683 19.4507 87.7595 19.2288 87.9012L11.9622 92.0973C11.5252 92.3513 11.1797 92.1684 11.1797 91.7011C11.197 91.4376 11.2771 91.1822 11.4132 90.9559C11.5493 90.7297 11.7376 90.5393 11.9622 90.4006Z" fill="white"/>
<path d="M11.9622 97.2079L19.2288 93.0118C19.6556 92.7578 20.0113 92.9407 20.0113 93.408C19.99 93.6705 19.9083 93.9244 19.7726 94.15C19.6368 94.3756 19.4507 94.5668 19.2288 94.7085L11.9622 98.9046C11.5252 99.1586 11.1797 98.9757 11.1797 98.5084C11.197 98.2449 11.2771 97.9895 11.4132 97.7632C11.5493 97.537 11.7376 97.3466 11.9622 97.2079Z" fill="#4CAF4F"/>
<path opacity="0.6" d="M11.9622 97.2079L19.2288 93.0118C19.6556 92.7578 20.0113 92.9407 20.0113 93.408C19.99 93.6705 19.9083 93.9244 19.7726 94.15C19.6368 94.3756 19.4507 94.5668 19.2288 94.7085L11.9622 98.9046C11.5252 99.1586 11.1797 98.9757 11.1797 98.5084C11.197 98.2449 11.2771 97.9895 11.4132 97.7632C11.5493 97.537 11.7376 97.3466 11.9622 97.2079Z" fill="white"/>
<path d="M11.9622 104.005L19.2288 99.8089C19.6556 99.5549 20.0113 99.7378 20.0113 100.205C19.99 100.468 19.9083 100.722 19.7726 100.947C19.6368 101.173 19.4507 101.364 19.2288 101.506L11.9622 105.702C11.5252 105.956 11.1797 105.773 11.1797 105.305C11.1986 105.042 11.2794 104.788 11.4153 104.562C11.5513 104.336 11.7387 104.145 11.9622 104.005Z" fill="#4CAF4F"/>
<path opacity="0.6" d="M11.9622 104.005L19.2288 99.8089C19.6556 99.5549 20.0113 99.7378 20.0113 100.205C19.99 100.468 19.9083 100.722 19.7726 100.947C19.6368 101.173 19.4507 101.364 19.2288 101.506L11.9622 105.702C11.5252 105.956 11.1797 105.773 11.1797 105.305C11.1986 105.042 11.2794 104.788 11.4153 104.562C11.5513 104.336 11.7387 104.145 11.9622 104.005Z" fill="white"/>
<path d="M11.9622 110.802L19.2288 106.606C19.6556 106.352 20.0113 106.535 20.0113 107.002C19.99 107.265 19.9083 107.519 19.7726 107.744C19.6368 107.97 19.4507 108.161 19.2288 108.303L11.9622 112.499C11.5252 112.753 11.1797 112.57 11.1797 112.103C11.1986 111.839 11.2794 111.585 11.4153 111.359C11.5513 111.133 11.7387 110.942 11.9622 110.802Z" fill="#4CAF4F"/>
<path opacity="0.6" d="M11.9622 110.802L19.2288 106.606C19.6556 106.352 20.0113 106.535 20.0113 107.002C19.99 107.265 19.9083 107.519 19.7726 107.744C19.6368 107.97 19.4507 108.161 19.2288 108.303L11.9622 112.499C11.5252 112.753 11.1797 112.57 11.1797 112.103C11.1986 111.839 11.2794 111.585 11.4153 111.359C11.5513 111.133 11.7387 110.942 11.9622 110.802Z" fill="white"/>
<path d="M23.7412 151.828L55.8561 133.296C56.2931 133.042 56.6387 133.225 56.6387 133.693C56.6197 133.956 56.539 134.21 56.403 134.436C56.2671 134.662 56.0797 134.853 55.8561 134.993L23.7412 153.525C23.3041 153.779 22.9586 153.596 22.9586 153.129C22.9759 152.865 23.056 152.61 23.1921 152.384C23.3282 152.157 23.5165 151.967 23.7412 151.828Z" fill="#C8E6C9"/>
<path d="M23.7412 158.625L55.8561 140.093C56.2931 139.839 56.6387 140.022 56.6387 140.49C56.6214 140.753 56.5413 141.009 56.4052 141.235C56.2691 141.461 56.0808 141.651 55.8561 141.79L23.7412 160.322C23.3041 160.576 22.9586 160.393 22.9586 159.926C22.9775 159.663 23.0583 159.408 23.1943 159.182C23.3302 158.956 23.5176 158.765 23.7412 158.625Z" fill="#C8E6C9"/>
<path d="M60.5311 130.594L80.7147 118.981C81.1517 118.737 81.4973 118.91 81.4973 119.377C81.4799 119.642 81.3999 119.899 81.2639 120.127C81.1278 120.354 80.9396 120.547 80.7147 120.688L60.5311 132.29C60.1042 132.544 59.7485 132.362 59.7485 131.894C59.7683 131.631 59.8493 131.377 59.9852 131.151C60.1211 130.925 60.3081 130.734 60.5311 130.594Z" fill="#C8E6C9"/>
<path d="M60.5311 137.391L80.7147 125.778C81.1517 125.534 81.4973 125.707 81.4973 126.184C81.4783 126.447 81.3976 126.702 81.2616 126.928C81.1257 127.154 80.9383 127.345 80.7147 127.485L60.5311 139.088C60.1042 139.342 59.7485 139.159 59.7485 138.691C59.7698 138.429 59.8515 138.175 59.9873 137.949C60.123 137.724 60.3092 137.533 60.5311 137.391Z" fill="#C8E6C9"/>
<path d="M11.9622 158.625L19.2288 154.429C19.6556 154.175 20.0113 154.358 20.0113 154.826C19.9916 155.088 19.9105 155.343 19.7746 155.569C19.6387 155.795 19.4518 155.985 19.2288 156.126L11.9622 160.322C11.5252 160.576 11.1797 160.403 11.1797 159.926C11.1986 159.663 11.2794 159.408 11.4153 159.182C11.5513 158.956 11.7387 158.765 11.9622 158.625Z" fill="#4CAF4F"/>
<path opacity="0.6" d="M11.9622 158.625L19.2288 154.429C19.6556 154.175 20.0113 154.358 20.0113 154.826C19.9916 155.088 19.9105 155.343 19.7746 155.569C19.6387 155.795 19.4518 155.985 19.2288 156.126L11.9622 160.322C11.5252 160.576 11.1797 160.403 11.1797 159.926C11.1986 159.663 11.2794 159.408 11.4153 159.182C11.5513 158.956 11.7387 158.765 11.9622 158.625Z" fill="white"/>
<path d="M11.9622 165.422L19.2288 161.226C19.6556 160.982 20.0113 161.155 20.0113 161.623C19.9916 161.885 19.9105 162.14 19.7746 162.366C19.6387 162.592 19.4518 162.782 19.2288 162.923L11.9622 167.129C11.5252 167.373 11.1797 167.2 11.1797 166.733C11.1971 166.468 11.2771 166.211 11.4131 165.984C11.5492 165.756 11.7374 165.563 11.9622 165.422Z" fill="#4CAF4F"/>
<path opacity="0.6" d="M11.9622 165.422L19.2288 161.226C19.6556 160.982 20.0113 161.155 20.0113 161.623C19.9916 161.885 19.9105 162.14 19.7746 162.366C19.6387 162.592 19.4518 162.782 19.2288 162.923L11.9622 167.129C11.5252 167.373 11.1797 167.2 11.1797 166.733C11.1971 166.468 11.2771 166.211 11.4131 165.984C11.5492 165.756 11.7374 165.563 11.9622 165.422Z" fill="white"/>
<path d="M50.9678 61.0991L60.277 55.7447C60.7039 55.4907 61.0596 55.6736 61.0596 56.1409C61.0399 56.4038 60.9588 56.6583 60.8229 56.8842C60.687 57.11 60.5001 57.3009 60.277 57.4414L50.9678 62.7958C50.5308 63.0498 50.175 62.8771 50.175 62.3995C50.1959 62.1358 50.2785 61.8807 50.4162 61.6548C50.5539 61.4288 50.7429 61.2385 50.9678 61.0991Z" fill="#4CAF4F"/>
<path opacity="0.6" d="M50.9678 61.0991L60.277 55.7447C60.7039 55.4907 61.0596 55.6736 61.0596 56.1409C61.0399 56.4038 60.9588 56.6583 60.8229 56.8842C60.687 57.11 60.5001 57.3009 60.277 57.4414L50.9678 62.7958C50.5308 63.0498 50.175 62.8771 50.175 62.3995C50.1959 62.1358 50.2785 61.8807 50.4162 61.6548C50.5539 61.4288 50.7429 61.2385 50.9678 61.0991Z" fill="white"/>
<path d="M23.1822 111.066L68.5395 84.9244C68.9664 84.6704 69.3221 84.8533 69.3221 85.3206C69.3024 85.5835 69.2213 85.838 69.0854 86.0638C68.9495 86.2897 68.7625 86.4805 68.5395 86.6211L23.1822 112.753C22.7554 113.007 22.3997 112.824 22.3997 112.357C22.4209 112.095 22.5027 111.843 22.6385 111.619C22.7744 111.395 22.9605 111.206 23.1822 111.066Z" fill="#E8F5E9"/>
<path d="M11.9622 124.508L80.8875 84.6195C81.3245 84.3655 81.67 84.5483 81.67 85.0157C81.6527 85.2791 81.5727 85.5346 81.4366 85.7608C81.3004 85.9871 81.1122 86.1775 80.8875 86.3162L11.9622 126.205C11.5252 126.459 11.1797 126.276 11.1797 125.808C11.197 125.545 11.2771 125.289 11.4132 125.063C11.5493 124.837 11.7376 124.647 11.9622 124.508Z" fill="#E8F5E9"/>
<path d="M71.5782 83.1667L80.8875 77.8123C81.3245 77.5583 81.67 77.7412 81.67 78.2086C81.6527 78.472 81.5727 78.7275 81.4365 78.9537C81.3004 79.1799 81.1122 79.3703 80.8875 79.5091L71.5782 84.8736C71.1412 85.1174 70.7957 84.9447 70.7957 84.4672C70.8146 84.2041 70.8953 83.9493 71.0313 83.7233C71.1673 83.4974 71.3546 83.3066 71.5782 83.1667Z" fill="#E8F5E9"/>
<path d="M23.7411 83.6137L59.6977 62.8465C60.1347 62.5925 60.4904 62.7754 60.4904 63.2427C60.4695 63.5065 60.3869 63.7616 60.2492 63.9875C60.1115 64.2135 59.9226 64.4038 59.6977 64.5432L23.7411 85.3205C23.3041 85.5745 22.9484 85.3917 22.9484 84.9243C22.966 84.6584 23.0472 84.4006 23.1852 84.1725C23.3231 83.9445 23.5137 83.7528 23.7411 83.6137Z" fill="#4CAF4F"/>
<path opacity="0.6" d="M23.7411 83.6137L59.6977 62.8465C60.1347 62.5925 60.4904 62.7754 60.4904 63.2427C60.4695 63.5065 60.3869 63.7616 60.2492 63.9875C60.1115 64.2135 59.9226 64.4038 59.6977 64.5432L23.7411 85.3205C23.3041 85.5745 22.9484 85.3917 22.9484 84.9243C22.966 84.6584 23.0472 84.4006 23.1852 84.1725C23.3231 83.9445 23.5137 83.7528 23.7411 83.6137Z" fill="white"/>
<path d="M62.7466 61.0889L72.0558 55.7345C72.4827 55.4805 72.8384 55.6532 72.8384 56.1307C72.8171 56.3932 72.7354 56.6471 72.5996 56.8727C72.4639 57.0983 72.2778 57.2895 72.0558 57.4312L62.7466 62.7856C62.3096 63.0396 61.9539 62.8567 61.9539 62.3894C61.9747 62.1256 62.0573 61.8705 62.195 61.6446C62.3327 61.4186 62.5217 61.2283 62.7466 61.0889Z" fill="#4CAF4F"/>
<path opacity="0.6" d="M62.7466 61.0889L72.0558 55.7345C72.4827 55.4805 72.8384 55.6532 72.8384 56.1307C72.8171 56.3932 72.7354 56.6471 72.5996 56.8727C72.4639 57.0983 72.2778 57.2895 72.0558 57.4312L62.7466 62.7856C62.3096 63.0396 61.9539 62.8567 61.9539 62.3894C61.9747 62.1256 62.0573 61.8705 62.195 61.6446C62.3327 61.4186 62.5217 61.2283 62.7466 61.0889Z" fill="white"/>
</svg>
