<svg width="183" height="241" viewBox="0 0 183 241" fill="none" xmlns="http://www.w3.org/2000/svg">
<path d="M5.3317 240.401C5.56611 240.394 5.79424 240.323 5.99229 240.198L180.064 139.613C180.777 139.144 181.372 138.515 181.801 137.776C182.229 137.037 182.48 136.209 182.533 135.356V3.86505C182.533 2.94049 182.147 2.39185 181.517 2.39185C181.157 2.4017 180.806 2.50688 180.501 2.69665L6.41913 103.24C5.70523 103.712 5.1106 104.343 4.68206 105.084C4.25352 105.824 4.00276 106.654 3.94953 107.508V238.308C3.93995 238.841 4.08849 239.364 4.37638 239.812C4.47407 239.982 4.61257 240.125 4.77938 240.227C4.94618 240.33 5.13601 240.39 5.3317 240.401Z" fill="#F5F7FA"/>
<path d="M1.21566 238.694C1.51039 238.847 3.60396 240.035 4.51863 240.564C4.18232 240.293 3.91489 239.947 3.73824 239.553C3.5616 239.159 3.48075 238.729 3.50233 238.298V116.276L0.0570795 114.244V236.337C0.0267886 236.797 0.117864 237.257 0.321191 237.671C0.524519 238.084 0.832966 238.437 1.21566 238.694Z" fill="#F5F7FA"/>
<path d="M181.497 2.84882C182.005 2.84882 182.076 3.47875 182.076 3.86483V135.346C182.023 136.119 181.794 136.87 181.407 137.541C181.019 138.211 180.483 138.785 179.84 139.217L5.76869 239.801C5.6369 239.883 5.48633 239.928 5.33168 239.934C4.85402 239.934 4.43734 239.192 4.43734 238.338V107.477C4.48475 106.703 4.71139 105.95 5.09938 105.278C5.48738 104.607 6.02614 104.034 6.67319 103.606L180.744 3.09267C180.969 2.94668 181.229 2.86257 181.497 2.84882ZM181.497 1.94458C181.071 1.95606 180.657 2.08245 180.297 2.31034L6.21586 102.814C5.43389 103.326 4.78354 104.015 4.31742 104.825C3.85131 105.635 3.58253 106.544 3.53284 107.477V238.308C3.53284 239.659 4.2849 240.817 5.33168 240.817C5.64815 240.811 5.95713 240.72 6.22602 240.553L180.287 139.969C181.073 139.462 181.728 138.776 182.198 137.967C182.668 137.158 182.939 136.249 182.991 135.316V3.86483C182.991 2.64562 182.381 1.94458 181.497 1.94458Z" fill="#E0E0E0"/>
<path d="M182.981 3.80398V12.8159L3.53362 116.448L0.0883789 114.416V105.557C0.12669 104.605 0.406467 103.678 0.901415 102.864C1.35276 102.063 1.99951 101.388 2.78156 100.904L176.853 0.359728C177.134 0.157263 177.465 0.0351676 177.811 0.00653064C178.157 -0.0221063 178.503 0.0437952 178.814 0.197167C179.312 0.501969 181.67 1.84309 182.148 2.08693C182.223 2.12243 182.292 2.17054 182.351 2.22918C182.432 2.28928 182.504 2.36119 182.564 2.44254C182.634 2.52616 182.692 2.61836 182.737 2.71686C182.8 2.81675 182.844 2.92676 182.869 3.04198C182.908 3.16098 182.935 3.28347 182.951 3.40774C182.972 3.53867 182.983 3.67126 182.981 3.80398Z" fill="#4CAF4F"/>
<path opacity="0.15" d="M182.981 3.80398V12.8159L3.53362 116.448L0.0883789 114.416V105.557C0.12669 104.605 0.406467 103.678 0.901415 102.864C1.35276 102.063 1.99951 101.388 2.78156 100.904L176.853 0.359728C177.134 0.157263 177.465 0.0351676 177.811 0.00653064C178.157 -0.0221063 178.503 0.0437952 178.814 0.197167C179.312 0.501969 181.67 1.84309 182.148 2.08693C182.223 2.12243 182.292 2.17054 182.351 2.22918C182.432 2.28928 182.504 2.36119 182.564 2.44254C182.634 2.52616 182.692 2.61836 182.737 2.71686C182.8 2.81675 182.844 2.92676 182.869 3.04198C182.908 3.16098 182.935 3.28347 182.951 3.40774C182.972 3.53867 182.983 3.67126 182.981 3.80398Z" fill="#103E13"/>
<path d="M182.98 3.804V12.816L3.53284 116.448V107.548C3.54027 106.975 3.65041 106.407 3.85805 105.872C3.88831 105.778 3.92568 105.686 3.96984 105.598C4.07528 105.346 4.19751 105.101 4.33571 104.866C4.78454 104.054 5.4357 103.371 6.22602 102.885L180.287 2.31047C180.578 2.09211 180.928 1.96737 181.291 1.95285C181.654 1.93833 182.013 2.03472 182.32 2.22919C182.401 2.2893 182.473 2.36121 182.533 2.44255C182.602 2.52618 182.66 2.61838 182.706 2.71688C182.769 2.81677 182.813 2.92678 182.838 3.042C182.877 3.16099 182.904 3.28349 182.919 3.40776C182.951 3.53777 182.972 3.67037 182.98 3.804Z" fill="#4CAF4F"/>
<path d="M164.961 14.6041C164.428 15.0283 163.999 15.5697 163.708 16.1864C163.417 16.8031 163.272 17.4784 163.285 18.1601C163.285 19.5926 164.037 20.314 164.961 19.7755C165.495 19.3513 165.924 18.8098 166.215 18.1932C166.506 17.5765 166.651 16.9012 166.638 16.2195C166.587 14.8479 165.835 14.0656 164.961 14.6041Z" fill="#F5F7FA"/>
<path d="M170.958 11.1091C170.423 11.5322 169.993 12.0735 169.702 12.6904C169.411 13.3073 169.267 13.9832 169.281 14.6651C169.281 16.0875 170.033 16.819 170.958 16.2805C171.494 15.8578 171.925 15.3169 172.218 14.7001C172.51 14.0832 172.657 13.4071 172.645 12.7245C172.645 11.2919 171.893 10.5706 170.958 11.1091Z" fill="#F5F7FA"/>
<path d="M177.015 7.60389C176.478 8.02657 176.047 8.56746 175.754 9.18431C175.462 9.80117 175.316 10.4773 175.328 11.1599C175.328 12.5925 176.08 13.3138 177.015 12.7855C177.548 12.3608 177.976 11.8192 178.267 11.2027C178.558 10.5861 178.703 9.91104 178.691 9.2295C178.691 7.79694 177.939 7.07557 177.015 7.60389Z" fill="#F5F7FA"/>
<path d="M180.297 2.31046L6.226 102.814C5.43015 103.319 4.77609 104.018 4.32552 104.846L0.910767 102.814C1.35235 102.005 1.99682 101.326 2.78075 100.843L176.852 0.359728C177.133 0.157263 177.465 0.0351676 177.81 0.00653064C178.156 -0.0221063 178.503 0.0437952 178.814 0.197167C179.291 0.491809 181.527 1.76181 182.096 2.06661C181.799 1.95936 181.48 1.92552 181.167 1.96797C180.854 2.01043 180.555 2.12793 180.297 2.31046Z" fill="#4CAF4F"/>
<g opacity="0.5">
<path opacity="0.5" d="M180.297 2.31046L6.226 102.814C5.43015 103.319 4.77609 104.018 4.32552 104.846L0.910767 102.814C1.35235 102.005 1.99682 101.326 2.78075 100.843L176.852 0.359728C177.133 0.157263 177.465 0.0351676 177.81 0.00653064C178.156 -0.0221063 178.503 0.0437952 178.814 0.197167C179.291 0.491809 181.527 1.76181 182.096 2.06661C181.799 1.95936 181.48 1.92552 181.167 1.96797C180.854 2.01043 180.555 2.12793 180.297 2.31046Z" fill="white"/>
</g>
<path d="M47.0709 120.756C47.0062 120.756 46.9442 120.731 46.8985 120.685C46.8527 120.639 46.827 120.577 46.827 120.512V110.261C46.827 110.196 46.8527 110.134 46.8985 110.089C46.9442 110.043 47.0062 110.017 47.0709 110.017C47.1025 110.017 47.1338 110.023 47.1628 110.036C47.1918 110.048 47.2181 110.066 47.2399 110.089C47.2618 110.112 47.2788 110.139 47.2899 110.168C47.301 110.198 47.3061 110.229 47.3047 110.261V120.512C47.3061 120.544 47.301 120.575 47.2899 120.605C47.2788 120.635 47.2618 120.661 47.2399 120.684C47.2181 120.707 47.1918 120.725 47.1628 120.738C47.1338 120.75 47.1025 120.756 47.0709 120.756Z" fill="#455A64"/>
<path d="M46.207 119.547L47.0302 120.37L47.8433 119.547V120.248L47.0302 121.061L46.207 120.248V119.547Z" fill="#455A64"/>
<path d="M55.7399 121.874C55.6963 121.877 55.6529 121.867 55.6149 121.845C55.577 121.823 55.5463 121.791 55.5265 121.752C55.5104 121.725 55.5001 121.695 55.496 121.663C55.4919 121.632 55.4942 121.6 55.5027 121.57C55.5113 121.54 55.5259 121.511 55.5457 121.487C55.5655 121.462 55.5901 121.442 55.618 121.427L62.3662 117.526C62.3942 117.509 62.4251 117.499 62.4571 117.494C62.4892 117.49 62.5218 117.493 62.553 117.501C62.5842 117.51 62.6134 117.524 62.639 117.544C62.6645 117.564 62.6857 117.589 62.7016 117.617C62.7312 117.672 62.7383 117.737 62.7212 117.798C62.7042 117.859 62.6644 117.91 62.6101 117.942L55.8517 121.844C55.8182 121.864 55.7794 121.875 55.7399 121.874Z" fill="#455A64"/>
<path d="M62.0613 118.928L62.3662 117.81L61.2483 117.505L61.8479 117.16L62.9658 117.454L62.6711 118.572L62.0613 118.928Z" fill="#455A64"/>
<path d="M54.4899 175.732C54.4463 175.735 54.4029 175.725 54.3649 175.703C54.327 175.682 54.2963 175.649 54.2765 175.61C54.2604 175.583 54.2501 175.553 54.246 175.522C54.2419 175.49 54.2442 175.459 54.2527 175.428C54.2613 175.398 54.2759 175.37 54.2957 175.345C54.3155 175.32 54.3401 175.3 54.368 175.285L61.1162 171.384C61.1732 171.354 61.2396 171.346 61.3019 171.363C61.3642 171.38 61.4177 171.42 61.4515 171.475C61.4794 171.533 61.4855 171.598 61.4687 171.66C61.4519 171.722 61.4133 171.775 61.3601 171.811L54.6017 175.702C54.5682 175.723 54.5294 175.733 54.4899 175.732Z" fill="#455A64"/>
<path d="M60.8113 172.786L61.1162 171.668L59.9983 171.374L60.5979 171.018L61.7158 171.323L61.4211 172.44L60.8113 172.786Z" fill="#455A64"/>
<path d="M78.9928 161.59C78.9509 161.59 78.9096 161.579 78.8737 161.558C78.8377 161.536 78.8086 161.505 78.7895 161.468C78.7719 161.441 78.7602 161.411 78.7553 161.379C78.7504 161.347 78.7524 161.315 78.761 161.284C78.7697 161.253 78.7849 161.225 78.8056 161.2C78.8263 161.176 78.852 161.156 78.881 161.143L85.6292 157.241C85.656 157.223 85.6862 157.212 85.7178 157.207C85.7495 157.202 85.7818 157.204 85.8127 157.213C85.8435 157.221 85.8721 157.236 85.8966 157.257C85.921 157.278 85.9408 157.304 85.9544 157.332C85.9709 157.359 85.9818 157.389 85.9867 157.42C85.9915 157.45 85.9901 157.482 85.9825 157.512C85.9749 157.543 85.9613 157.571 85.9425 157.596C85.9237 157.621 85.9001 157.642 85.8731 157.658L79.1147 161.559C79.0774 161.58 79.0354 161.59 78.9928 161.59Z" fill="#455A64"/>
<path d="M85.3244 158.643L85.6293 157.525L84.5114 157.221L85.111 156.875L86.2289 157.17L85.924 158.287L85.3244 158.643Z" fill="#455A64"/>
<path d="M80.6088 107.538C80.5669 107.539 80.5256 107.528 80.4896 107.506C80.4537 107.485 80.4246 107.454 80.4055 107.416C80.3891 107.39 80.3781 107.36 80.3733 107.329C80.3685 107.298 80.3699 107.267 80.3775 107.237C80.385 107.206 80.3986 107.178 80.4174 107.153C80.4362 107.128 80.4598 107.107 80.4868 107.091L87.2452 103.19C87.2724 103.174 87.3025 103.163 87.3338 103.159C87.3651 103.155 87.3969 103.157 87.4273 103.166C87.4577 103.175 87.4861 103.189 87.5106 103.209C87.5352 103.229 87.5556 103.253 87.5704 103.281C87.5869 103.308 87.5978 103.337 87.6026 103.368C87.6075 103.399 87.606 103.431 87.5984 103.461C87.5909 103.491 87.5773 103.52 87.5585 103.545C87.5397 103.57 87.5161 103.591 87.4891 103.606L80.7307 107.508C80.693 107.527 80.6512 107.538 80.6088 107.538Z" fill="#455A64"/>
<path d="M86.8996 104.592L87.2045 103.474L86.0865 103.169L86.6862 102.824L87.8041 103.118L87.4992 104.246L86.8996 104.592Z" fill="#455A64"/>
<path d="M80.131 134.625C80.0888 134.626 80.047 134.617 80.0096 134.597C79.9722 134.577 79.9405 134.549 79.9176 134.513C79.9014 134.485 79.8908 134.454 79.8866 134.422C79.8824 134.39 79.8846 134.357 79.8931 134.326C79.9016 134.295 79.9163 134.266 79.9362 134.24C79.9561 134.215 79.9809 134.194 80.0091 134.178L86.7573 130.276C86.8139 130.244 86.881 130.235 86.9439 130.253C87.0068 130.27 87.0603 130.311 87.0927 130.368C87.125 130.424 87.1336 130.491 87.1164 130.554C87.0993 130.617 87.0578 130.671 87.0012 130.703L80.2428 134.594C80.2093 134.615 80.1705 134.626 80.131 134.625Z" fill="#455A64"/>
<path d="M80.5478 133.202L80.2531 134.32L81.371 134.615L80.7714 134.96L79.6534 134.665L79.9482 133.548L80.5478 133.202Z" fill="#455A64"/>
<path d="M79.6941 184.998C79.6522 184.999 79.6109 184.988 79.575 184.966C79.539 184.945 79.5099 184.914 79.4908 184.876C79.4674 184.848 79.4513 184.815 79.4437 184.779C79.4361 184.744 79.4374 184.707 79.4474 184.672C79.4575 184.637 79.4759 184.604 79.5012 184.578C79.5265 184.552 79.5578 184.532 79.5925 184.521L85.8935 180.873C85.949 180.844 86.0139 180.837 86.0745 180.854C86.1351 180.871 86.1868 180.91 86.2187 180.965C86.2352 180.991 86.2461 181.021 86.251 181.052C86.2558 181.083 86.2544 181.114 86.2468 181.144C86.2392 181.175 86.2256 181.203 86.2068 181.228C86.188 181.253 86.1644 181.274 86.1374 181.29L79.8262 184.937C79.7885 184.969 79.7428 184.99 79.6941 184.998Z" fill="#455A64"/>
<path d="M80.1209 183.566L79.816 184.683L80.934 184.988L80.3343 185.334L79.2164 185.029L79.5213 183.911L80.1209 183.566Z" fill="#455A64"/>
<path d="M55.8517 148.635C55.8098 148.636 55.7685 148.625 55.7326 148.604C55.6966 148.582 55.6675 148.551 55.6484 148.514C55.632 148.487 55.621 148.457 55.6162 148.427C55.6114 148.396 55.6128 148.364 55.6204 148.334C55.628 148.304 55.6415 148.275 55.6603 148.25C55.6791 148.225 55.7027 148.204 55.7297 148.188L62.4881 144.287C62.5437 144.257 62.6085 144.25 62.6691 144.267C62.7297 144.284 62.7814 144.324 62.8133 144.378C62.8296 144.406 62.8402 144.437 62.8444 144.469C62.8486 144.501 62.8463 144.534 62.8378 144.565C62.8293 144.596 62.8147 144.626 62.7948 144.651C62.7749 144.677 62.7501 144.698 62.7219 144.714L55.9737 148.605L55.8517 148.635Z" fill="#455A64"/>
<path d="M56.2785 147.213L55.9736 148.331L57.0916 148.625L56.4919 148.971L55.374 148.676L55.6789 147.558L56.2785 147.213Z" fill="#455A64"/>
<path d="M94.2678 116.692C94.2031 116.692 94.1411 116.667 94.0954 116.621C94.0496 116.575 94.0239 116.513 94.0239 116.449V108.635C94.0239 108.571 94.0496 108.509 94.0954 108.463C94.1411 108.417 94.2031 108.392 94.2678 108.392C94.3325 108.392 94.3946 108.417 94.4403 108.463C94.486 108.509 94.5117 108.571 94.5117 108.635V116.449C94.5117 116.513 94.486 116.575 94.4403 116.621C94.3946 116.667 94.3325 116.692 94.2678 116.692Z" fill="#455A64"/>
<path d="M93.4547 115.493L94.2678 116.306L95.0909 115.493V116.184L94.2678 116.997L93.4547 116.184V115.493Z" fill="#455A64"/>
<path d="M47.071 166.619C47.0312 166.631 46.9888 166.631 46.949 166.619C46.9117 166.6 46.8804 166.571 46.8589 166.535C46.8373 166.499 46.8263 166.457 46.8271 166.416V160.665C46.8271 160.6 46.8528 160.538 46.8985 160.493C46.9442 160.447 47.0063 160.421 47.071 160.421C47.1025 160.421 47.1338 160.428 47.1628 160.44C47.1919 160.452 47.2181 160.47 47.24 160.493C47.2618 160.516 47.2788 160.543 47.2899 160.572C47.3011 160.602 47.3061 160.633 47.3047 160.665V165.989L94.0544 139.004V135.427C94.0544 135.363 94.0801 135.301 94.1258 135.255C94.1716 135.209 94.2336 135.184 94.2983 135.184C94.363 135.184 94.425 135.209 94.4708 135.255C94.5165 135.301 94.5422 135.363 94.5422 135.427V139.146C94.5409 139.187 94.5289 139.228 94.5076 139.263C94.4863 139.299 94.4562 139.328 94.4203 139.349L47.1726 166.619C47.1393 166.627 47.1043 166.627 47.071 166.619Z" fill="#455A64"/>
<path d="M47.8433 161.59L47.0302 160.777L46.207 161.59V160.899L47.0302 160.076L47.8433 160.899V161.59Z" fill="#455A64"/>
<path d="M47.071 193.289C47.0312 193.301 46.9888 193.301 46.9491 193.289C46.9101 193.269 46.8778 193.238 46.8561 193.201C46.8344 193.163 46.8244 193.119 46.8271 193.076V189.367C46.8271 189.302 46.8528 189.24 46.8985 189.195C46.9443 189.149 47.0063 189.123 47.071 189.123C47.1026 189.123 47.1338 189.13 47.1629 189.142C47.1919 189.154 47.2182 189.173 47.24 189.195C47.2618 189.218 47.2788 189.245 47.29 189.275C47.3011 189.304 47.3061 189.336 47.3048 189.367V192.649L94.0544 165.664V160.035C94.0544 159.97 94.0801 159.908 94.1258 159.863C94.1716 159.817 94.2336 159.791 94.2983 159.791C94.363 159.791 94.4251 159.817 94.4708 159.863C94.5165 159.908 94.5422 159.97 94.5422 160.035V165.786C94.5409 165.827 94.5289 165.868 94.5076 165.903C94.4863 165.939 94.4562 165.968 94.4203 165.989L47.1422 193.258C47.1206 193.273 47.0965 193.283 47.071 193.289Z" fill="#455A64"/>
<path d="M95.0909 160.99L94.2678 160.177L93.4547 160.99V160.299L94.2678 159.486L95.0909 160.299V160.99Z" fill="#455A64"/>
<path d="M36.2169 186.278C36.1768 186.288 36.1351 186.288 36.095 186.278C36.0576 186.257 36.0266 186.226 36.0052 186.188C35.9837 186.151 35.9726 186.108 35.973 186.065V159.73C35.9744 159.689 35.9863 159.648 36.0077 159.613C36.029 159.577 36.059 159.548 36.095 159.527L38.6561 158.044C38.7037 158.022 38.7572 158.016 38.8084 158.027C38.8597 158.038 38.906 158.065 38.9406 158.105C38.9569 158.133 38.9674 158.164 38.9716 158.196C38.9758 158.228 38.9736 158.26 38.9651 158.291C38.9566 158.323 38.942 158.352 38.9221 158.377C38.9021 158.403 38.8774 158.424 38.8492 158.44L36.4202 159.842V185.588L39.1032 184.043C39.1306 184.02 39.1629 184.002 39.1978 183.993C39.2326 183.983 39.2693 183.981 39.3049 183.987C39.3406 183.993 39.3744 184.008 39.404 184.028C39.4336 184.049 39.4581 184.077 39.4758 184.108C39.4935 184.14 39.504 184.175 39.5064 184.211C39.5089 184.247 39.5032 184.283 39.49 184.317C39.4767 184.351 39.456 184.381 39.4296 184.406C39.4031 184.43 39.3715 184.449 39.337 184.46L36.2881 186.218C36.268 186.242 36.244 186.262 36.2169 186.278Z" fill="#455A64"/>
<path d="M38.8389 185.476L39.1337 184.358L38.0157 184.053L38.6255 183.708L39.7333 184.013L39.4386 185.12L38.8389 185.476Z" fill="#455A64"/>
<path d="M103.425 171.313C103.383 171.313 103.341 171.302 103.305 171.281C103.27 171.259 103.24 171.228 103.221 171.191C103.205 171.163 103.195 171.132 103.19 171.1C103.186 171.068 103.188 171.035 103.197 171.004C103.205 170.973 103.22 170.944 103.24 170.918C103.26 170.893 103.285 170.871 103.313 170.855L105.854 169.392V146.126L103.658 147.386C103.632 147.402 103.602 147.413 103.571 147.418C103.54 147.423 103.509 147.421 103.479 147.414C103.448 147.406 103.42 147.393 103.395 147.374C103.37 147.355 103.349 147.332 103.333 147.305C103.316 147.277 103.305 147.247 103.3 147.215C103.295 147.183 103.297 147.151 103.304 147.12C103.312 147.089 103.325 147.06 103.344 147.034C103.363 147.008 103.387 146.986 103.414 146.969L105.975 145.496C106.013 145.476 106.055 145.465 106.097 145.465C106.14 145.465 106.182 145.476 106.219 145.496C106.255 145.519 106.284 145.551 106.303 145.588C106.323 145.625 106.333 145.667 106.331 145.709V169.525C106.332 169.565 106.322 169.605 106.302 169.641C106.283 169.677 106.254 169.707 106.219 169.728L103.547 171.313C103.507 171.323 103.465 171.323 103.425 171.313Z" fill="#455A64"/>
<path d="M103.851 169.87L103.557 170.988L104.675 171.282L104.065 171.638L102.947 171.333L103.252 170.215L103.851 169.87Z" fill="#455A64"/>
<path d="M54.3171 99.6944C54.3171 102.427 51.0548 106.522 47.0303 108.838C43.0058 111.155 39.7333 110.87 39.7333 108.097C39.7333 105.323 42.9956 101.269 47.0303 98.9528C51.065 96.6363 54.3171 96.9614 54.3171 99.6944Z" fill="#4CAF4F"/>
<path d="M73.5612 192.923C77.3187 189.779 79.1994 185.838 77.762 184.121C76.3246 182.405 72.1132 183.562 68.3558 186.706C64.5983 189.85 62.7175 193.791 64.155 195.508C65.5924 197.224 69.8037 196.067 73.5612 192.923Z" fill="#4CAF4F"/>
<path d="M53.6666 127.208L40.3836 134.869C39.9873 135.092 39.6722 134.869 39.6722 134.32V127.482C39.6754 127.214 39.7414 126.95 39.8649 126.712C39.9885 126.474 40.1661 126.268 40.3836 126.111L53.6666 118.48C54.063 118.257 54.378 118.48 54.378 119.029V125.857C54.371 126.121 54.3032 126.381 54.1798 126.615C54.0565 126.849 53.8809 127.052 53.6666 127.208Z" fill="#4CAF4F"/>
<path opacity="0.6" d="M53.6666 127.208L40.3836 134.869C39.9873 135.092 39.6722 134.869 39.6722 134.32V127.482C39.6754 127.214 39.7414 126.95 39.8649 126.712C39.9885 126.474 40.1661 126.268 40.3836 126.111L53.6666 118.48C54.063 118.257 54.378 118.48 54.378 119.029V125.857C54.371 126.121 54.3032 126.381 54.1798 126.615C54.0565 126.849 53.8809 127.052 53.6666 127.208Z" fill="white"/>
<path d="M77.5599 113.4L64.348 121.051C63.9517 121.284 63.6265 121.051 63.6265 120.512V113.675C63.6308 113.405 63.6983 113.141 63.8237 112.903C63.949 112.665 64.1286 112.459 64.348 112.303L77.5599 104.642C77.9563 104.409 78.2815 104.642 78.2815 105.181V112.019C78.2788 112.289 78.212 112.556 78.0866 112.796C77.9612 113.036 77.7807 113.243 77.5599 113.4Z" fill="#4CAF4F"/>
<path opacity="0.6" d="M77.5599 113.4L64.348 121.051C63.9517 121.284 63.6265 121.051 63.6265 120.512V113.675C63.6308 113.405 63.6983 113.141 63.8237 112.903C63.949 112.665 64.1286 112.459 64.348 112.303L77.5599 104.642C77.9563 104.409 78.2815 104.642 78.2815 105.181V112.019C78.2788 112.289 78.212 112.556 78.0866 112.796C77.9612 113.036 77.7807 113.243 77.5599 113.4Z" fill="white"/>
<path d="M77.5599 140.223L64.348 147.884C63.9517 148.117 63.6265 147.884 63.6265 147.345V140.507C63.6316 140.238 63.6995 139.974 63.8247 139.736C63.95 139.498 64.1292 139.292 64.348 139.136L77.5599 131.475C77.9563 131.241 78.2815 131.475 78.2815 132.014V138.851C78.2772 139.12 78.2096 139.385 78.0843 139.623C77.9589 139.861 77.7793 140.067 77.5599 140.223Z" fill="#4CAF4F"/>
<path opacity="0.6" d="M77.5599 140.223L64.348 147.884C63.9517 148.117 63.6265 147.884 63.6265 147.345V140.507C63.6316 140.238 63.6995 139.974 63.8247 139.736C63.95 139.498 64.1292 139.292 64.348 139.136L77.5599 131.475C77.9563 131.241 78.2815 131.475 78.2815 132.014V138.851C78.2772 139.12 78.2096 139.385 78.0843 139.623C77.9589 139.861 77.7793 140.067 77.5599 140.223Z" fill="white"/>
<path d="M77.5599 166.538L64.348 174.198C63.9517 174.422 63.6265 174.198 63.6265 173.65V166.812C63.6316 166.543 63.6995 166.279 63.8247 166.041C63.95 165.802 64.1292 165.597 64.348 165.44L77.5599 157.78C77.9563 157.556 78.2815 157.78 78.2815 158.328V165.156C78.2772 165.426 78.2097 165.692 78.0844 165.932C77.9591 166.172 77.7795 166.379 77.5599 166.538Z" fill="#4CAF4F"/>
<path opacity="0.6" d="M77.5599 166.538L64.348 174.198C63.9517 174.422 63.6265 174.198 63.6265 173.65V166.812C63.6316 166.543 63.6995 166.279 63.8247 166.041C63.95 165.802 64.1292 165.597 64.348 165.44L77.5599 157.78C77.9563 157.556 78.2815 157.78 78.2815 158.328V165.156C78.2772 165.426 78.2097 165.692 78.0844 165.932C77.9591 166.172 77.7795 166.379 77.5599 166.538Z" fill="white"/>
<path d="M100.935 153.075L87.6619 160.736C87.2655 160.97 86.9403 160.736 86.9403 160.198V153.36C86.9454 153.091 87.0133 152.827 87.1386 152.589C87.2639 152.35 87.4431 152.145 87.6619 151.988L100.935 144.328C101.331 144.094 101.656 144.328 101.656 144.866V151.704C101.652 151.973 101.584 152.237 101.459 152.476C101.334 152.714 101.154 152.919 100.935 153.075Z" fill="#4CAF4F"/>
<path opacity="0.6" d="M100.935 153.075L87.6619 160.736C87.2655 160.97 86.9403 160.736 86.9403 160.198V153.36C86.9454 153.091 87.0133 152.827 87.1386 152.589C87.2639 152.35 87.4431 152.145 87.6619 151.988L100.935 144.328C101.331 144.094 101.656 144.328 101.656 144.866V151.704C101.652 151.973 101.584 152.237 101.459 152.476C101.334 152.714 101.154 152.919 100.935 153.075Z" fill="white"/>
<path d="M100.935 176.891L87.6314 184.521C87.235 184.754 86.9098 184.521 86.9098 183.982V177.145C86.9141 176.875 86.9816 176.611 87.107 176.373C87.2323 176.134 87.412 175.929 87.6314 175.773L100.935 168.143C101.331 167.909 101.656 168.143 101.656 168.681V175.519C101.651 175.788 101.583 176.052 101.458 176.29C101.333 176.528 101.153 176.734 100.935 176.891Z" fill="#4CAF4F"/>
<path opacity="0.6" d="M100.935 176.891L87.6314 184.521C87.235 184.754 86.9098 184.521 86.9098 183.982V177.145C86.9141 176.875 86.9816 176.611 87.107 176.373C87.2323 176.134 87.412 175.929 87.6314 175.773L100.935 168.143C101.331 167.909 101.656 168.143 101.656 168.681V175.519C101.651 175.788 101.583 176.052 101.458 176.29C101.333 176.528 101.153 176.734 100.935 176.891Z" fill="white"/>
<path d="M53.6666 154.041L40.3836 161.701C39.9873 161.935 39.6722 161.701 39.6722 161.153V154.325C39.6754 154.055 39.7413 153.79 39.8648 153.55C39.9883 153.31 40.1659 153.103 40.3836 152.943L53.6666 145.283C54.063 145.059 54.378 145.283 54.378 145.831V152.669C54.3749 152.937 54.3089 153.201 54.1854 153.439C54.0618 153.677 53.8842 153.883 53.6666 154.041Z" fill="#4CAF4F"/>
<path opacity="0.6" d="M53.6666 154.041L40.3836 161.701C39.9873 161.935 39.6722 161.701 39.6722 161.153V154.325C39.6754 154.055 39.7413 153.79 39.8648 153.55C39.9883 153.31 40.1659 153.103 40.3836 152.943L53.6666 145.283C54.063 145.059 54.378 145.283 54.378 145.831V152.669C54.3749 152.937 54.3089 153.201 54.1854 153.439C54.0618 153.677 53.8842 153.883 53.6666 154.041Z" fill="white"/>
<path d="M93.597 106.563L87.987 98.7293C87.8104 98.295 87.7803 97.815 87.9014 97.3621C88.0225 96.9092 88.288 96.5081 88.6578 96.2198L99.837 89.7478C100.548 89.3313 100.945 90.3574 100.508 91.475L94.8978 105.791C94.6031 106.664 93.9425 107.04 93.597 106.563Z" fill="#455A64"/>
<path d="M99.9793 123.977L94.7759 132.948C94.471 133.467 94.0645 133.71 93.7596 133.538L88.5561 130.571C88.0988 130.307 88.0988 129.26 88.5561 128.468L93.7596 119.507C94.0645 118.988 94.471 118.745 94.7759 118.917L99.9793 121.884C100.437 122.138 100.437 123.195 99.9793 123.977Z" fill="#C8E6C9"/>
<path d="M52.7317 177.551L47.5384 186.553C47.2336 187.071 46.8169 187.315 46.5222 187.142L41.3187 184.175C40.8614 183.921 40.8614 182.865 41.3187 182.072L46.5222 173.111C46.8169 172.593 47.2336 172.349 47.5384 172.522L52.7317 175.488C53.1687 175.712 53.1687 176.769 52.7317 177.551Z" fill="#C8E6C9"/>
<path d="M27.3447 145.913C27.3028 145.912 27.2616 145.902 27.2245 145.882C27.1874 145.863 27.1554 145.835 27.1312 145.801C27.101 145.744 27.0936 145.677 27.1106 145.615C27.1276 145.553 27.1677 145.499 27.2227 145.465L42.894 136.423C42.9214 136.406 42.9517 136.395 42.9834 136.39C43.0151 136.385 43.0474 136.387 43.0785 136.394C43.1097 136.402 43.139 136.415 43.1649 136.434C43.1908 136.453 43.2127 136.477 43.2294 136.504C43.2596 136.561 43.267 136.628 43.25 136.69C43.233 136.752 43.1929 136.806 43.1379 136.84L27.4666 145.913C27.4265 145.922 27.3848 145.922 27.3447 145.913Z" fill="#455A64"/>
<path d="M27.3446 148.229C27.3016 148.229 27.2595 148.217 27.2222 148.196C27.1849 148.174 27.1536 148.144 27.1312 148.107C27.1015 148.052 27.0945 147.987 27.1115 147.926C27.1286 147.866 27.1684 147.814 27.2227 147.782L42.894 138.729C42.951 138.699 43.0175 138.692 43.0798 138.709C43.1421 138.726 43.1955 138.766 43.2294 138.821C43.259 138.876 43.2661 138.941 43.249 139.002C43.232 139.062 43.1922 139.114 43.1379 139.146L27.4666 148.199C27.4288 148.218 27.3871 148.229 27.3446 148.229Z" fill="#E0E0E0"/>
<path d="M27.3447 150.505C27.3021 150.503 27.2606 150.49 27.2235 150.469C27.1865 150.448 27.1549 150.418 27.1312 150.383C27.101 150.326 27.0936 150.26 27.1106 150.197C27.1276 150.135 27.1677 150.081 27.2227 150.048L42.894 141.005C42.922 140.989 42.9529 140.978 42.985 140.974C43.0171 140.97 43.0496 140.972 43.0809 140.981C43.1121 140.989 43.1413 141.004 43.1668 141.024C43.1923 141.044 43.2136 141.068 43.2294 141.097C43.2591 141.152 43.2661 141.217 43.2491 141.278C43.232 141.338 43.1922 141.39 43.1379 141.422L27.4666 150.474L27.3447 150.505Z" fill="#E0E0E0"/>
<path d="M27.3447 152.771C27.3028 152.77 27.2616 152.76 27.2245 152.741C27.1874 152.721 27.1554 152.693 27.1312 152.659C27.101 152.602 27.0936 152.535 27.1106 152.473C27.1276 152.411 27.1677 152.357 27.2227 152.324L42.894 143.281C42.9214 143.265 42.9517 143.253 42.9834 143.248C43.0151 143.243 43.0474 143.245 43.0785 143.252C43.1097 143.26 43.139 143.274 43.1649 143.292C43.1908 143.311 43.2127 143.335 43.2294 143.362C43.2596 143.42 43.267 143.486 43.25 143.548C43.233 143.61 43.1929 143.664 43.1379 143.698L27.4666 152.74C27.4289 152.76 27.3871 152.77 27.3447 152.771Z" fill="#E0E0E0"/>
<path d="M20.4541 119.364C20.4122 119.365 20.3709 119.354 20.3349 119.333C20.299 119.311 20.2698 119.28 20.2508 119.242C20.2341 119.215 20.223 119.185 20.218 119.153C20.2131 119.121 20.2144 119.089 20.222 119.058C20.2295 119.027 20.2431 118.997 20.262 118.972C20.2809 118.946 20.3047 118.924 20.3321 118.907L36.0136 109.865C36.0671 109.848 36.1248 109.85 36.177 109.87C36.2292 109.891 36.2727 109.929 36.3002 109.978C36.3277 110.027 36.3374 110.084 36.3278 110.139C36.3181 110.194 36.2897 110.245 36.2473 110.281L20.576 119.334C20.5383 119.353 20.4965 119.364 20.4541 119.364Z" fill="#455A64"/>
<path d="M20.4541 121.63C20.4134 121.631 20.3732 121.621 20.3376 121.601C20.3019 121.582 20.272 121.553 20.2508 121.518C20.2341 121.491 20.223 121.461 20.218 121.429C20.2131 121.397 20.2144 121.365 20.222 121.334C20.2295 121.303 20.2431 121.273 20.262 121.247C20.2809 121.222 20.3047 121.2 20.3321 121.183L36.0136 112.14C36.0401 112.124 36.0697 112.113 36.1006 112.108C36.1315 112.103 36.163 112.105 36.1934 112.112C36.2237 112.12 36.2522 112.134 36.2771 112.152C36.3021 112.171 36.3231 112.195 36.3388 112.222C36.3551 112.25 36.3656 112.281 36.3698 112.313C36.374 112.345 36.3718 112.377 36.3633 112.409C36.3548 112.44 36.3401 112.469 36.3202 112.494C36.3003 112.52 36.2755 112.541 36.2473 112.557L20.576 121.6C20.5383 121.619 20.4965 121.629 20.4541 121.63Z" fill="#E0E0E0"/>
<path d="M20.4541 123.906C20.4122 123.907 20.3709 123.896 20.335 123.874C20.2991 123.853 20.2699 123.821 20.2509 123.784C20.2344 123.757 20.2234 123.728 20.2186 123.697C20.2138 123.666 20.2152 123.635 20.2228 123.604C20.2304 123.574 20.244 123.546 20.2628 123.521C20.2815 123.496 20.3051 123.475 20.3322 123.459L36.0136 114.416C36.0692 114.387 36.134 114.38 36.1946 114.397C36.2552 114.414 36.3069 114.454 36.3388 114.508C36.3549 114.535 36.3653 114.565 36.3694 114.597C36.3734 114.628 36.3711 114.66 36.3626 114.69C36.354 114.72 36.3394 114.749 36.3196 114.773C36.2998 114.798 36.2752 114.818 36.2474 114.833L20.5761 123.886C20.5375 123.902 20.4958 123.909 20.4541 123.906Z" fill="#E0E0E0"/>
<path d="M20.4541 126.182C20.3997 126.183 20.3466 126.165 20.3032 126.132C20.2598 126.1 20.2286 126.053 20.2145 126.001C20.2005 125.948 20.2045 125.892 20.2258 125.842C20.2471 125.792 20.2846 125.751 20.3322 125.725L36.0136 116.682C36.0408 116.666 36.071 116.656 36.1023 116.652C36.1336 116.648 36.1654 116.65 36.1958 116.658C36.2262 116.667 36.2545 116.682 36.2791 116.701C36.3037 116.721 36.324 116.746 36.3389 116.774C36.3549 116.801 36.3653 116.831 36.3694 116.862C36.3734 116.893 36.3711 116.925 36.3626 116.956C36.354 116.986 36.3394 117.014 36.3196 117.039C36.2998 117.064 36.2752 117.084 36.2474 117.099L20.5761 126.151L20.4541 126.182Z" fill="#E0E0E0"/>
<path d="M63.1182 125.034C63.0638 125.034 63.0107 125.017 62.9672 124.984C62.9238 124.952 62.8926 124.905 62.8786 124.853C62.8646 124.8 62.8685 124.744 62.8899 124.694C62.9112 124.644 62.9486 124.603 62.9962 124.576L78.6777 115.534C78.7049 115.518 78.7351 115.508 78.7664 115.503C78.7977 115.499 78.8295 115.502 78.8599 115.51C78.8903 115.519 78.9186 115.533 78.9432 115.553C78.9678 115.573 78.9881 115.598 79.0029 115.625C79.019 115.653 79.0294 115.683 79.0335 115.714C79.0375 115.745 79.0352 115.777 79.0267 115.807C79.0181 115.838 79.0035 115.866 78.9837 115.891C78.9639 115.915 78.9394 115.936 78.9115 115.95L63.2402 124.993C63.2053 125.02 63.1623 125.034 63.1182 125.034Z" fill="#455A64"/>
<path d="M63.1183 127.299C63.0764 127.3 63.0351 127.289 62.9992 127.268C62.9632 127.246 62.9341 127.215 62.915 127.177C62.8986 127.151 62.8876 127.121 62.8828 127.09C62.878 127.06 62.8794 127.028 62.887 126.998C62.8946 126.967 62.9081 126.939 62.9269 126.914C62.9457 126.889 62.9693 126.868 62.9963 126.852L78.6778 117.8C78.7339 117.774 78.7977 117.77 78.8564 117.79C78.915 117.809 78.9642 117.85 78.9938 117.904C79.0235 117.958 79.0315 118.022 79.0162 118.081C79.001 118.141 78.9636 118.193 78.9116 118.226L63.2403 127.269L63.1183 127.299Z" fill="#E0E0E0"/>
<path d="M63.1183 129.575C63.0764 129.576 63.0351 129.565 62.9992 129.543C62.9632 129.522 62.9341 129.491 62.915 129.453C62.8986 129.427 62.8876 129.397 62.8828 129.366C62.878 129.335 62.8794 129.304 62.887 129.274C62.8946 129.243 62.9081 129.215 62.9269 129.19C62.9457 129.165 62.9693 129.144 62.9963 129.128L78.6778 120.076C78.7334 120.046 78.7982 120.039 78.8588 120.056C78.9194 120.073 78.9711 120.113 79.003 120.167C79.0191 120.194 79.0295 120.224 79.0335 120.256C79.0376 120.287 79.0353 120.319 79.0268 120.349C79.0182 120.38 79.0036 120.408 78.9838 120.433C78.964 120.457 78.9394 120.477 78.9116 120.492L63.2403 129.545C63.2025 129.564 63.1608 129.575 63.1183 129.575Z" fill="#E0E0E0"/>
<path d="M63.1182 131.851C63.0638 131.852 63.0107 131.835 62.9672 131.802C62.9238 131.769 62.8926 131.723 62.8786 131.67C62.8646 131.618 62.8685 131.562 62.8899 131.512C62.9112 131.462 62.9486 131.42 62.9962 131.394L78.6777 122.351C78.7043 122.335 78.7339 122.324 78.7648 122.319C78.7957 122.314 78.8272 122.316 78.8575 122.323C78.8878 122.331 78.9163 122.345 78.9413 122.363C78.9663 122.382 78.9872 122.406 79.0029 122.433C79.0192 122.461 79.0298 122.492 79.034 122.524C79.0382 122.556 79.036 122.588 79.0274 122.62C79.0189 122.651 79.0043 122.68 78.9844 122.705C78.9645 122.731 78.9397 122.752 78.9115 122.768L63.2402 131.81C63.2053 131.838 63.1623 131.852 63.1182 131.851Z" fill="#E0E0E0"/>
<path d="M85.7919 86.1715C85.75 86.1723 85.7087 86.1612 85.6727 86.1397C85.6368 86.1181 85.6076 86.0869 85.5886 86.0496C85.571 86.0228 85.5593 85.9926 85.5544 85.961C85.5495 85.9293 85.5514 85.897 85.5601 85.8661C85.5688 85.8353 85.584 85.8067 85.6047 85.7823C85.6254 85.7578 85.6511 85.7381 85.6801 85.7245L101.351 76.6719C101.407 76.6422 101.472 76.6351 101.532 76.6522C101.593 76.6692 101.645 76.709 101.677 76.7633C101.693 76.7899 101.704 76.8195 101.709 76.8503C101.714 76.8812 101.712 76.9127 101.705 76.943C101.697 76.9733 101.683 77.0018 101.665 77.0268C101.646 77.0518 101.622 77.0727 101.595 77.0884L85.9138 86.141C85.8765 86.1617 85.8345 86.1722 85.7919 86.1715Z" fill="#455A64"/>
<path d="M85.7919 88.4474C85.7504 88.4461 85.71 88.4342 85.6744 88.4128C85.6389 88.3915 85.6093 88.3614 85.5886 88.3255C85.5598 88.2688 85.5542 88.203 85.5732 88.1423C85.5922 88.0815 85.6342 88.0306 85.6903 88.0004L101.362 78.958C101.388 78.9404 101.419 78.9287 101.45 78.9238C101.482 78.9189 101.514 78.9208 101.545 78.9295C101.576 78.9382 101.604 78.9534 101.629 78.974C101.653 78.9947 101.673 79.0204 101.687 79.0494C101.703 79.076 101.714 79.1056 101.719 79.1364C101.724 79.1673 101.722 79.1988 101.715 79.2291C101.707 79.2595 101.694 79.2879 101.675 79.3129C101.656 79.3379 101.632 79.3588 101.605 79.3745L85.924 88.417C85.9052 88.4307 85.8838 88.4405 85.8611 88.4457C85.8384 88.4509 85.8148 88.4515 85.7919 88.4474Z" fill="#E0E0E0"/>
<path d="M85.7919 90.713C85.75 90.7138 85.7087 90.7027 85.6728 90.6812C85.6368 90.6596 85.6077 90.6284 85.5886 90.5911C85.5726 90.5639 85.5622 90.5337 85.5581 90.5025C85.554 90.4712 85.5563 90.4394 85.5649 90.409C85.5734 90.3786 85.588 90.3503 85.6078 90.3257C85.6276 90.3011 85.6522 90.2808 85.6801 90.266L101.351 81.2235C101.378 81.207 101.408 81.1961 101.438 81.1913C101.469 81.1865 101.501 81.1879 101.531 81.1955C101.561 81.203 101.59 81.2166 101.615 81.2354C101.64 81.2542 101.661 81.2778 101.677 81.3048C101.693 81.3321 101.704 81.3625 101.709 81.3942C101.714 81.4258 101.713 81.4581 101.705 81.4893C101.698 81.5204 101.684 81.5497 101.665 81.5756C101.646 81.6015 101.623 81.6234 101.595 81.6401L85.9138 90.6825C85.8766 90.7031 85.8345 90.7137 85.7919 90.713Z" fill="#E0E0E0"/>
<path d="M85.7919 92.9889C85.75 92.9896 85.7087 92.9786 85.6727 92.9571C85.6368 92.9355 85.6076 92.9043 85.5886 92.867C85.571 92.8402 85.5593 92.81 85.5544 92.7783C85.5495 92.7467 85.5514 92.7144 85.5601 92.6835C85.5688 92.6527 85.584 92.6241 85.6047 92.5996C85.6254 92.5752 85.6511 92.5555 85.6801 92.5418L101.351 83.4892C101.407 83.4596 101.472 83.4525 101.532 83.4696C101.593 83.4866 101.645 83.5264 101.677 83.5807C101.693 83.6072 101.704 83.6368 101.709 83.6677C101.714 83.6986 101.712 83.7301 101.705 83.7604C101.697 83.7907 101.683 83.8192 101.665 83.8442C101.646 83.8692 101.622 83.8901 101.595 83.9058L85.9138 92.9584C85.8765 92.979 85.8345 92.9895 85.7919 92.9889Z" fill="#E0E0E0"/>
<path d="M100.315 111.612C100.273 111.613 100.231 111.602 100.196 111.581C100.16 111.559 100.13 111.528 100.111 111.49C100.094 111.464 100.082 111.433 100.077 111.402C100.072 111.37 100.074 111.338 100.083 111.307C100.092 111.276 100.107 111.248 100.128 111.223C100.148 111.199 100.174 111.179 100.203 111.165L115.874 102.113C115.931 102.08 115.998 102.072 116.061 102.089C116.124 102.106 116.177 102.148 116.21 102.204C116.242 102.261 116.25 102.328 116.233 102.391C116.216 102.454 116.175 102.507 116.118 102.539L100.437 111.582C100.399 111.603 100.357 111.613 100.315 111.612Z" fill="#455A64"/>
<path d="M100.315 113.888C100.273 113.889 100.232 113.878 100.196 113.856C100.16 113.835 100.131 113.803 100.111 113.766C100.095 113.738 100.085 113.707 100.08 113.675C100.076 113.643 100.078 113.611 100.087 113.579C100.095 113.548 100.11 113.519 100.13 113.493C100.15 113.468 100.175 113.447 100.203 113.431L115.874 104.388C115.901 104.371 115.931 104.359 115.963 104.354C115.995 104.349 116.027 104.351 116.058 104.36C116.089 104.369 116.117 104.384 116.142 104.404C116.166 104.425 116.186 104.451 116.199 104.48C116.216 104.506 116.227 104.536 116.232 104.567C116.236 104.598 116.235 104.629 116.227 104.66C116.22 104.69 116.206 104.718 116.188 104.743C116.169 104.768 116.145 104.789 116.118 104.805L100.437 113.858C100.399 113.878 100.357 113.889 100.315 113.888Z" fill="#E0E0E0"/>
<path d="M100.315 116.154C100.274 116.155 100.234 116.145 100.198 116.125C100.163 116.105 100.133 116.077 100.111 116.042C100.095 116.014 100.085 115.983 100.08 115.951C100.076 115.919 100.078 115.887 100.087 115.855C100.095 115.824 100.11 115.795 100.13 115.769C100.15 115.744 100.175 115.723 100.203 115.707L115.874 106.664C115.901 106.648 115.93 106.637 115.961 106.632C115.992 106.627 116.024 106.629 116.054 106.636C116.084 106.644 116.113 106.658 116.138 106.676C116.163 106.695 116.184 106.719 116.199 106.746C116.216 106.773 116.227 106.803 116.232 106.835C116.237 106.867 116.236 106.899 116.228 106.93C116.221 106.961 116.207 106.991 116.188 107.017C116.169 107.042 116.145 107.064 116.118 107.081L100.437 116.123C100.399 116.144 100.357 116.155 100.315 116.154Z" fill="#E0E0E0"/>
<path d="M100.315 118.48C100.273 118.481 100.231 118.47 100.196 118.449C100.16 118.427 100.13 118.396 100.111 118.358C100.094 118.332 100.082 118.301 100.077 118.27C100.072 118.238 100.074 118.206 100.083 118.175C100.092 118.144 100.107 118.116 100.128 118.091C100.148 118.067 100.174 118.047 100.203 118.033L115.874 108.981C115.93 108.951 115.995 108.944 116.055 108.961C116.116 108.978 116.168 109.018 116.199 109.072C116.216 109.099 116.227 109.128 116.232 109.159C116.236 109.19 116.235 109.222 116.227 109.252C116.22 109.282 116.206 109.311 116.188 109.336C116.169 109.361 116.145 109.382 116.118 109.397L100.437 118.45C100.399 118.47 100.357 118.481 100.315 118.48Z" fill="#E0E0E0"/>
<path d="M100.315 134.208C100.273 134.209 100.231 134.198 100.196 134.176C100.16 134.155 100.13 134.124 100.111 134.086C100.094 134.059 100.082 134.029 100.077 133.998C100.072 133.966 100.074 133.934 100.083 133.903C100.092 133.872 100.107 133.843 100.128 133.819C100.148 133.794 100.174 133.775 100.203 133.761L115.874 124.708C115.93 124.679 115.995 124.672 116.055 124.689C116.116 124.706 116.168 124.746 116.199 124.8C116.216 124.826 116.227 124.856 116.232 124.887C116.236 124.918 116.235 124.949 116.227 124.98C116.22 125.01 116.206 125.038 116.188 125.063C116.169 125.088 116.145 125.109 116.118 125.125L100.437 134.178C100.399 134.198 100.357 134.209 100.315 134.208Z" fill="#455A64"/>
<path d="M100.315 136.484C100.273 136.483 100.233 136.471 100.197 136.449C100.162 136.428 100.132 136.398 100.111 136.362C100.095 136.334 100.085 136.303 100.08 136.271C100.076 136.239 100.078 136.206 100.087 136.175C100.095 136.144 100.11 136.115 100.13 136.089C100.15 136.064 100.175 136.043 100.203 136.027L115.874 126.984C115.901 126.967 115.931 126.955 115.963 126.95C115.995 126.945 116.027 126.947 116.058 126.956C116.089 126.965 116.117 126.98 116.142 127C116.166 127.021 116.186 127.047 116.199 127.076C116.216 127.102 116.227 127.132 116.232 127.163C116.236 127.194 116.235 127.225 116.227 127.256C116.22 127.286 116.206 127.314 116.188 127.339C116.169 127.364 116.145 127.385 116.118 127.401L100.437 136.454C100.399 136.474 100.357 136.485 100.315 136.484Z" fill="#E0E0E0"/>
<path d="M100.315 138.801C100.273 138.801 100.232 138.79 100.196 138.769C100.16 138.747 100.131 138.716 100.111 138.679C100.095 138.651 100.085 138.621 100.081 138.59C100.077 138.559 100.079 138.527 100.088 138.497C100.096 138.466 100.111 138.438 100.131 138.413C100.15 138.389 100.175 138.368 100.203 138.353L115.874 129.311C115.901 129.295 115.93 129.284 115.961 129.279C115.992 129.274 116.024 129.275 116.054 129.283C116.084 129.291 116.113 129.304 116.138 129.323C116.163 129.342 116.184 129.365 116.199 129.392C116.216 129.42 116.227 129.45 116.232 129.482C116.237 129.513 116.236 129.546 116.228 129.577C116.221 129.608 116.207 129.637 116.188 129.663C116.169 129.689 116.146 129.711 116.118 129.728L100.437 138.77C100.399 138.791 100.357 138.801 100.315 138.801Z" fill="#E0E0E0"/>
<path d="M100.315 141.026C100.273 141.026 100.231 141.015 100.196 140.994C100.16 140.972 100.13 140.941 100.111 140.904C100.094 140.877 100.082 140.847 100.077 140.815C100.072 140.783 100.074 140.751 100.083 140.72C100.092 140.689 100.107 140.661 100.128 140.636C100.148 140.612 100.174 140.592 100.203 140.579L115.874 131.526C115.93 131.496 115.995 131.489 116.055 131.506C116.116 131.523 116.168 131.563 116.199 131.617C116.216 131.644 116.227 131.674 116.232 131.704C116.236 131.735 116.235 131.767 116.227 131.797C116.22 131.827 116.206 131.856 116.188 131.881C116.169 131.906 116.145 131.927 116.118 131.943L100.437 140.995C100.399 141.016 100.357 141.026 100.315 141.026Z" fill="#E0E0E0"/>
<path d="M26.5722 197.251C26.5301 197.252 26.4886 197.242 26.4514 197.222C26.4141 197.203 26.3823 197.174 26.3588 197.14C26.3425 197.112 26.332 197.081 26.3278 197.049C26.3235 197.017 26.3258 196.984 26.3343 196.953C26.3428 196.922 26.3574 196.892 26.3773 196.867C26.3972 196.841 26.422 196.82 26.4502 196.804L42.1215 187.762C42.1489 187.745 42.1793 187.734 42.2109 187.729C42.2426 187.724 42.2749 187.725 42.3061 187.733C42.3372 187.74 42.3666 187.754 42.3924 187.773C42.4183 187.792 42.4402 187.816 42.4569 187.843C42.4871 187.9 42.4945 187.967 42.4775 188.029C42.4605 188.091 42.4204 188.145 42.3654 188.178L26.745 197.221C26.6923 197.25 26.6316 197.26 26.5722 197.251Z" fill="#455A64"/>
<path d="M26.5722 199.527C26.529 199.527 26.4865 199.516 26.449 199.495C26.4115 199.474 26.3804 199.443 26.3588 199.405C26.3427 199.378 26.3323 199.348 26.3283 199.317C26.3242 199.285 26.3265 199.253 26.335 199.223C26.3436 199.193 26.3582 199.164 26.378 199.14C26.3978 199.115 26.4224 199.095 26.4502 199.08L42.1215 190.027C42.1786 189.997 42.245 189.99 42.3073 190.007C42.3696 190.024 42.4231 190.064 42.4569 190.119C42.4866 190.174 42.4936 190.239 42.4766 190.3C42.4595 190.36 42.4197 190.412 42.3654 190.444L26.745 199.497L26.5722 199.527Z" fill="#E0E0E0"/>
<path d="M26.5722 201.793C26.5294 201.791 26.4876 201.779 26.4504 201.758C26.4133 201.737 26.3818 201.707 26.3588 201.671C26.3425 201.643 26.332 201.612 26.3278 201.58C26.3235 201.548 26.3258 201.515 26.3343 201.484C26.3428 201.453 26.3574 201.424 26.3773 201.398C26.3972 201.373 26.422 201.351 26.4502 201.336L42.1215 192.293C42.1495 192.277 42.1804 192.266 42.2125 192.262C42.2446 192.258 42.2772 192.26 42.3084 192.269C42.3396 192.277 42.3688 192.292 42.3943 192.312C42.4198 192.332 42.4411 192.356 42.4569 192.385C42.4866 192.44 42.4936 192.505 42.4766 192.566C42.4596 192.626 42.4197 192.678 42.3654 192.71L26.745 201.793C26.6889 201.811 26.6283 201.811 26.5722 201.793Z" fill="#E0E0E0"/>
<path d="M26.5722 204.069C26.5209 204.066 26.4717 204.047 26.4317 204.015C26.3916 203.983 26.3628 203.939 26.3493 203.889C26.3358 203.84 26.3383 203.787 26.3564 203.739C26.3745 203.691 26.4074 203.65 26.4503 203.622L42.1216 194.579C42.1489 194.562 42.1793 194.551 42.211 194.546C42.2426 194.541 42.2749 194.543 42.3061 194.55C42.3372 194.558 42.3666 194.571 42.3925 194.59C42.4184 194.609 42.4403 194.633 42.4569 194.66C42.4872 194.717 42.4945 194.784 42.4775 194.846C42.4605 194.908 42.4205 194.962 42.3655 194.996L26.745 204.038L26.5722 204.069Z" fill="#E0E0E0"/>
</svg>
