<svg width="97" height="58" viewBox="0 0 97 58" fill="none" xmlns="http://www.w3.org/2000/svg">
<path id="freepik  shadow  inject 10" d="M42.296 57.9594C41.3989 57.9495 40.5322 57.6325 39.8405 57.0612C39.1489 56.4899 38.674 55.6989 38.4951 54.8199L37.6109 50.1666C35.6151 49.8022 33.6432 49.317 31.7062 48.7137H31.5537L23.3624 52.5136C22.6893 52.8046 21.9588 52.9384 21.2262 52.9049C20.4937 52.8715 19.7784 52.6716 19.1346 52.3206L11.0042 47.6063C10.5136 47.3428 10.0994 46.9571 9.80184 46.4864C9.50426 46.0158 9.33337 45.4763 9.30577 44.9202C9.27816 44.3641 9.39476 43.8104 9.64427 43.3126C9.89378 42.8148 10.2677 42.39 10.7298 42.0792L15.669 38.5232C15.2206 37.9262 14.8099 37.3019 14.4393 36.6537L4.03244 36.0035C3.0878 35.9442 2.20104 35.5281 1.55187 34.8395C0.902697 34.1509 0.539675 33.2413 0.536377 32.2951V26.1991C0.53693 25.2527 0.897389 24.342 1.54469 23.6515C2.19199 22.961 3.07769 22.5424 4.02227 22.4805L14.4291 21.8201C14.7998 21.1752 15.2105 20.5543 15.6589 19.9608L10.6993 16.4352C10.2372 16.1245 9.86329 15.6996 9.61378 15.2018C9.36428 14.7041 9.24767 14.1503 9.27528 13.5942C9.30289 13.0382 9.47377 12.4986 9.77135 12.028C10.0689 11.5574 10.4831 11.1716 10.9737 10.9082L19.1041 6.19391C19.8118 5.79869 20.6107 5.59551 21.4213 5.60461C22.0795 5.59514 22.7318 5.73042 23.3319 6.00087L31.5334 9.80072H31.6351C33.5956 9.19282 35.5912 8.70424 37.6109 8.33767L38.4951 3.68438C38.6722 2.80459 39.1466 2.01245 39.8387 1.44084C40.5307 0.86923 41.3983 0.552911 42.296 0.544922H54.2985C55.1956 0.55479 56.0623 0.871778 56.7539 1.44307C57.4456 2.01437 57.9205 2.80545 58.0994 3.68438L58.9836 8.33767C60.9748 8.70353 62.943 9.18527 64.8781 9.78041H65.0306L73.2321 5.98053C73.829 5.71122 74.4777 5.57599 75.1325 5.5843C75.9465 5.5739 76.749 5.77707 77.4599 6.17357L85.5902 10.8879C86.0791 11.1524 86.4917 11.5382 86.7885 12.0082C87.0852 12.4781 87.2561 13.0165 87.2846 13.5715C87.3132 14.1265 87.1986 14.6796 86.9517 15.1775C86.7048 15.6755 86.3339 16.1016 85.8748 16.4149L80.9254 19.9709C81.3747 20.5659 81.7887 21.1868 82.1653 21.8302L92.5722 22.4906C93.5168 22.5525 94.4025 22.9711 95.0498 23.6617C95.6971 24.3522 96.0575 25.2629 96.0581 26.2092V32.3052C96.0551 33.2509 95.6939 34.1603 95.0471 34.8502C94.4002 35.5402 93.5159 35.9596 92.5722 36.0238L82.1653 36.6741C81.7912 37.3223 81.3771 37.9467 80.9254 38.5435L85.8748 42.0995C86.3339 42.4129 86.7048 42.839 86.9517 43.3369C87.1986 43.8349 87.3132 44.3879 87.2846 44.943C87.2561 45.498 87.0852 46.0363 86.7885 46.5063C86.4917 46.9762 86.0791 47.3621 85.5902 47.6266L77.4599 52.3409C76.7471 52.7326 75.9459 52.9355 75.1325 52.9302C74.4782 52.9334 73.8306 52.7984 73.2321 52.5339L65.0306 48.7341H64.9289C62.972 49.3454 60.9798 49.8373 58.9633 50.2073L58.0791 54.8504C57.9022 55.7312 57.4282 56.5246 56.7364 57.0979C56.0445 57.6712 55.1767 57.9897 54.2781 58L42.296 57.9594ZM48.3023 23.7403C43.9618 23.6381 39.6678 24.6527 35.8324 26.6867C33.0375 28.3022 31.4318 30.3647 31.4318 32.3662C31.4318 34.3677 33.0375 36.4302 35.8324 38.0457C39.7053 39.9832 43.9766 40.9919 48.3074 40.9919C52.6382 40.9919 56.9095 39.9832 60.7824 38.0457C63.5773 36.4302 65.1729 34.3677 65.1729 32.3662C65.1729 30.3647 63.5773 28.3022 60.7824 26.6867C56.9428 24.654 52.6459 23.6395 48.3023 23.7403Z" fill="#E0E0E0"/>
</svg>
