<svg width="392" height="407" viewBox="0 0 392 407" fill="none" xmlns="http://www.w3.org/2000/svg">
<path d="M336.333 393.032C366.547 393.032 391.04 378.894 391.04 361.454C391.04 344.015 366.547 329.877 336.333 329.877C306.119 329.877 281.625 344.015 281.625 361.454C281.625 378.894 306.119 393.032 336.333 393.032Z" fill="#E0E0E0"/>
<path d="M148.336 406.959C147.439 406.95 146.572 406.633 145.88 406.061C145.189 405.49 144.714 404.699 144.535 403.82L143.651 399.167C141.655 398.802 139.683 398.317 137.746 397.714H137.594L129.402 401.514C128.729 401.805 127.999 401.938 127.266 401.905C126.533 401.871 125.818 401.672 125.174 401.321L117.044 396.606C116.553 396.343 116.139 395.957 115.842 395.486C115.544 395.016 115.373 394.476 115.346 393.92C115.318 393.364 115.435 392.81 115.684 392.313C115.934 391.815 116.308 391.39 116.77 391.079L121.709 387.523C121.26 386.926 120.85 386.302 120.479 385.654L110.072 385.004C109.128 384.944 108.241 384.528 107.592 383.839C106.942 383.151 106.579 382.241 106.576 381.295V375.199C106.577 374.253 106.937 373.342 107.584 372.651C108.232 371.961 109.117 371.542 110.062 371.48L120.469 370.82C120.84 370.175 121.25 369.554 121.699 368.961L116.739 365.435C116.277 365.124 115.903 364.7 115.654 364.202C115.404 363.704 115.287 363.15 115.315 362.594C115.343 362.038 115.514 361.499 115.811 361.028C116.109 360.557 116.523 360.172 117.014 359.908L125.144 355.194C125.852 354.799 126.65 354.596 127.461 354.605C128.119 354.595 128.772 354.73 129.372 355.001L137.573 358.801H137.675C139.635 358.193 141.631 357.704 143.651 357.338L144.535 352.684C144.712 351.805 145.186 351.012 145.878 350.441C146.571 349.869 147.438 349.553 148.336 349.545H160.338C161.235 349.555 162.102 349.872 162.794 350.443C163.485 351.014 163.96 351.805 164.139 352.684L165.023 357.338C167.015 357.704 168.983 358.185 170.918 358.78H171.07L179.272 354.981C179.869 354.711 180.517 354.576 181.172 354.584C181.986 354.574 182.789 354.777 183.5 355.174L191.63 359.888C192.119 360.152 192.532 360.538 192.828 361.008C193.125 361.478 193.296 362.016 193.324 362.572C193.353 363.127 193.238 363.68 192.991 364.178C192.745 364.675 192.374 365.102 191.915 365.415L186.965 368.971C187.415 369.566 187.829 370.187 188.205 370.83L198.612 371.491C199.557 371.553 200.442 371.971 201.09 372.662C201.737 373.352 202.097 374.263 202.098 375.209V381.305C202.095 382.251 201.734 383.16 201.087 383.85C200.44 384.54 199.556 384.96 198.612 385.024L188.205 385.674C187.831 386.322 187.417 386.947 186.965 387.544L191.915 391.1C192.374 391.413 192.745 391.839 192.991 392.337C193.238 392.835 193.353 393.388 193.324 393.943C193.296 394.498 193.125 395.036 192.828 395.506C192.532 395.976 192.119 396.362 191.63 396.627L183.5 401.341C182.787 401.733 181.986 401.935 181.172 401.93C180.518 401.933 179.87 401.798 179.272 401.534L171.07 397.734H170.969C169.012 398.345 167.02 398.837 165.003 399.207L164.119 403.85C163.942 404.731 163.468 405.525 162.776 406.098C162.084 406.671 161.217 406.99 160.318 407L148.336 406.959ZM154.342 372.74C150.002 372.638 145.708 373.653 141.872 375.687C139.077 377.302 137.472 379.365 137.472 381.366C137.472 383.368 139.077 385.43 141.872 387.046C145.745 388.983 150.016 389.992 154.347 389.992C158.678 389.992 162.949 388.983 166.822 387.046C169.617 385.43 171.213 383.368 171.213 381.366C171.213 379.365 169.617 377.302 166.822 375.687C162.983 373.654 158.686 372.64 154.342 372.74Z" fill="#E0E0E0"/>
<path d="M193.253 233.065L189.848 231.105C188.554 230.448 187.123 230.107 185.671 230.107C184.22 230.107 182.789 230.448 181.494 231.105L1.76242 334.889C-0.534413 336.21 -0.534413 338.384 1.76242 339.705L5.15685 341.666C6.45321 342.322 7.88586 342.664 9.33891 342.664C10.792 342.664 12.2246 342.322 13.521 341.666L68.1164 310.17L90.2412 322.931C96.5016 326.548 106.756 326.548 113.016 322.931L150.68 301.188C156.026 298.14 156.026 293.06 150.68 290.012L126.909 276.185L193.263 237.891C195.55 236.56 195.55 234.396 193.253 233.065Z" fill="#E0E0E0"/>
<g opacity="0.1">
<path opacity="0.1" d="M200.215 57.0731L37.6071 150.921V242.9C37.5951 243.433 37.7438 243.957 38.034 244.404C38.131 244.565 38.2661 244.699 38.4275 244.794C38.5888 244.89 38.7714 244.945 38.9588 244.953C39.1922 244.948 39.4201 244.881 39.6194 244.76L204.087 149.753V59.3286C204.087 56.8292 202.349 55.8335 200.215 57.0731Z" fill="#103E13"/>
</g>
<path d="M116.421 317.526L147.581 299.522C150.792 297.663 152.398 295.235 152.398 292.806C152.398 290.378 152.398 288.468 152.398 288.468L123.068 271.836C122.166 271.245 121.416 270.451 120.877 269.518C120.339 268.584 120.027 267.537 119.968 266.461V228.056L65.5654 259.502V297.907C65.6175 298.977 65.9206 300.02 66.4502 300.952C66.9798 301.884 67.7211 302.678 68.6143 303.271L93.1071 317.495C99.5809 321.234 109.998 321.234 116.421 317.526Z" fill="#37474F"/>
<path d="M78.6249 304.704V309.022L68.655 303.271C67.7533 302.681 67.003 301.887 66.4646 300.953C65.9262 300.02 65.6147 298.973 65.5553 297.897V259.502L75.9215 253.517C76.1451 256.149 76.3687 258.872 76.5923 261.524L69.3156 265.73V295.732C69.3645 296.805 69.6662 297.851 70.196 298.785C70.7258 299.719 71.4688 300.515 72.3645 301.107L78.6249 304.704Z" fill="#263238"/>
<path d="M69.3156 295.743C69.3693 296.814 69.6729 297.858 70.2023 298.791C70.7317 299.725 71.4722 300.521 72.3644 301.117L93.0969 313.198C99.5301 316.906 109.947 316.906 116.37 313.198L147.54 295.194C153.973 291.486 153.973 285.471 147.54 281.762L126.787 269.672C125.883 269.084 125.131 268.29 124.592 267.356C124.054 266.422 123.744 265.374 123.687 264.297V234.305L69.3156 265.73V295.743Z" fill="#455A64"/>
<path opacity="0.15" d="M133.159 273.319L126.848 269.672C125.944 269.084 125.192 268.29 124.653 267.356C124.115 266.422 123.805 265.374 123.748 264.297V234.305L69.3156 265.73V295.743C69.3693 296.814 69.6729 297.858 70.2023 298.791C70.7317 299.725 71.4722 300.521 72.3644 301.117L78.574 304.694L133.159 273.319Z" fill="#103E13"/>
<path d="M4.47571 319.426C5.65244 319.994 6.94645 320.277 8.253 320.252C9.55954 320.228 10.8419 319.896 11.9963 319.283C38.7554 303.84 164.309 231.369 191.068 215.935C192.194 215.197 193.132 214.205 193.804 213.039C194.477 211.872 194.866 210.564 194.94 209.22V59.3081C194.994 57.9804 194.683 56.6632 194.041 55.4997C193.399 54.3361 192.451 53.3705 191.299 52.7077C190.146 52.045 188.835 51.7103 187.506 51.7401C186.177 51.7699 184.882 52.163 183.761 52.8768L4.71962 156.225C3.60071 156.967 2.67133 157.961 2.00598 159.128C1.34063 160.294 0.957801 161.6 0.888184 162.941V312.852C0.931553 314.152 1.2786 315.423 1.90156 316.565C2.52451 317.706 3.40608 318.686 4.47571 319.426Z" fill="#37474F"/>
<path d="M11.9964 319.283L191.068 215.925C192.196 215.189 193.135 214.197 193.807 213.03C194.48 211.863 194.868 210.554 194.94 209.209V59.308C194.94 56.829 193.202 55.8333 191.068 57.0728L11.9964 160.421C10.8683 161.157 9.92969 162.149 9.2569 163.316C8.58412 164.483 8.19609 165.792 8.12431 167.137V317.048C8.11415 319.517 9.85202 320.513 11.9964 319.283Z" fill="#455A64"/>
<path d="M13.2465 298.963V168.915C13.2915 168.089 13.5302 167.285 13.9433 166.569C14.3564 165.852 14.9324 165.243 15.6246 164.79L187.43 65.6277C188.741 64.8657 189.808 65.4855 189.808 66.9993V197.048C189.763 197.876 189.524 198.683 189.109 199.401C188.694 200.12 188.115 200.73 187.419 201.183L15.6246 300.345C14.3136 301.097 13.2465 300.487 13.2465 298.963Z" fill="#4CAF4F"/>
<path opacity="0.75" d="M13.2465 298.963V168.915C13.2915 168.089 13.5302 167.285 13.9433 166.569C14.3564 165.852 14.9324 165.243 15.6246 164.79L187.43 65.6277C188.741 64.8657 189.808 65.4855 189.808 66.9993V197.048C189.763 197.876 189.524 198.683 189.109 199.401C188.694 200.12 188.115 200.73 187.419 201.183L15.6246 300.345C14.3136 301.097 13.2465 300.487 13.2465 298.963Z" fill="white"/>
<path d="M1.98594 159.12L9.26263 163.316C8.5687 164.479 8.17411 165.795 8.11421 167.147V317.048C8.11421 319.304 9.64882 320.563 11.9965 319.283C10.8444 319.903 9.56123 320.239 8.25337 320.263C6.9455 320.288 5.65056 320.001 4.47587 319.426C3.41169 318.79 2.52207 317.901 1.887 316.837C1.25193 315.773 0.891295 314.567 0.837524 313.329V162.961C0.88883 161.604 1.28399 160.283 1.98594 159.12Z" fill="#263238"/>
<path d="M93.6152 261.838L109.439 252.694C110.232 252.247 110.862 252.562 110.862 253.416C110.826 253.893 110.679 254.355 110.432 254.764C110.185 255.174 109.844 255.519 109.439 255.773L93.6152 264.917C92.8327 265.374 92.1924 265.049 92.1924 264.206C92.2264 263.727 92.373 263.263 92.6202 262.852C92.8675 262.44 93.2084 262.093 93.6152 261.838Z" fill="#4CAF4F"/>
<path opacity="0.1" d="M49.7215 227.67L20.6148 244.465C20.2734 244.687 19.9895 244.988 19.7863 245.341C19.5832 245.694 19.4666 246.09 19.446 246.497V281.58C19.446 282.321 19.9745 282.596 20.6148 282.25L49.7215 265.486C50.0618 265.263 50.3448 264.962 50.5478 264.609C50.7508 264.256 50.8681 263.861 50.8903 263.454V228.341C50.8903 227.599 50.3618 227.305 49.7215 227.67Z" fill="#103E13"/>
<path opacity="0.1" d="M41.4692 158.013L19.9847 170.388C19.8283 170.489 19.698 170.625 19.6044 170.786C19.5108 170.946 19.4565 171.127 19.446 171.313V183.302C19.446 183.647 19.69 183.779 19.9847 183.606L41.4692 171.231C41.6254 171.133 41.7557 170.999 41.8494 170.84C41.9431 170.68 41.9974 170.501 42.0078 170.317V158.318C42.0078 157.983 41.7639 157.841 41.4692 158.013Z" fill="#103E13"/>
<path opacity="0.1" d="M41.4692 182.936L19.9847 195.311C19.8283 195.411 19.698 195.548 19.6044 195.708C19.5108 195.869 19.4565 196.05 19.446 196.235V208.224C19.446 208.559 19.69 208.702 19.9847 208.529L41.4692 196.154C41.6261 196.054 41.7569 195.918 41.8506 195.757C41.9443 195.596 41.9982 195.415 42.0078 195.229V183.241C42.0078 182.905 41.7639 182.763 41.4692 182.936Z" fill="#103E13"/>
<path opacity="0.1" d="M41.4692 207.889L19.9847 220.233C19.8277 220.333 19.697 220.47 19.6033 220.63C19.5096 220.791 19.4557 220.972 19.446 221.158V233.147C19.446 233.482 19.69 233.624 19.9847 233.452L41.4692 221.097C41.6256 220.996 41.7559 220.86 41.8495 220.699C41.9431 220.539 41.9974 220.358 42.0078 220.172V208.183C42.0078 207.818 41.7639 207.686 41.4692 207.889Z" fill="#103E13"/>
<path d="M53.3293 229.073L24.2632 245.837C23.9218 246.059 23.6379 246.359 23.4348 246.712C23.2316 247.066 23.115 247.462 23.0945 247.869V282.951C23.1126 283.359 23.2281 283.756 23.4315 284.11C23.6348 284.463 23.9201 284.763 24.2632 284.983L26.4788 286.233C26.8411 286.416 27.2415 286.512 27.6475 286.512C28.0535 286.512 28.4538 286.416 28.8162 286.233L57.923 269.469C58.2644 269.247 58.5483 268.946 58.7514 268.593C58.9546 268.24 59.0712 267.844 59.0917 267.437V232.273C59.0725 231.865 58.9554 231.467 58.7502 231.113C58.5451 230.76 58.2579 230.46 57.9128 230.241L55.7075 228.991C55.3334 228.814 54.9223 228.729 54.5085 228.743C54.0947 228.757 53.6904 228.87 53.3293 229.073Z" fill="#4CAF4F"/>
<path opacity="0.2" d="M28.7756 286.172C28.4116 286.35 28.0119 286.442 27.6068 286.442C27.2018 286.442 26.8021 286.35 26.4381 286.172L24.2632 284.922C23.9183 284.704 23.6317 284.404 23.4281 284.05C23.2245 283.697 23.11 283.298 23.0945 282.89V247.848C23.1147 247.426 23.2443 247.017 23.4705 246.66L27.993 249.281C27.7804 249.627 27.6613 250.023 27.6475 250.429V285.502C27.6068 286.182 28.0845 286.568 28.7756 286.172Z" fill="#103E13"/>
<path opacity="0.5" d="M59.0307 232.11C58.9393 231.521 58.4616 231.308 57.8823 231.643L28.7756 248.417C28.4308 248.629 28.147 248.926 27.9524 249.281L23.4197 246.66C23.6139 246.322 23.89 246.039 24.2226 245.837L53.3293 229.073C53.6917 228.89 54.092 228.794 54.498 228.794C54.9041 228.794 55.3044 228.89 55.6668 229.073L57.8721 230.322C58.1815 230.521 58.4448 230.783 58.6446 231.091C58.8444 231.4 58.9761 231.747 59.0307 232.11Z" fill="white"/>
<path d="M57.8823 231.643L28.7756 248.417C28.4336 248.639 28.1492 248.939 27.946 249.292C27.7428 249.646 27.6265 250.042 27.6068 250.449V285.522C27.6068 286.264 28.1353 286.538 28.7756 286.192L57.8823 269.428C58.2224 269.205 58.5047 268.905 58.7062 268.552C58.9076 268.199 59.0223 267.803 59.0409 267.396V232.273C59.0409 231.572 58.5226 231.257 57.8823 231.643Z" fill="#4CAF4F"/>
<path d="M29.5379 266.573C29.5309 266.327 29.5723 266.082 29.6598 265.852C29.7684 265.616 29.8941 265.389 30.0358 265.171L36.8958 254.077C36.9288 254.029 36.9662 253.985 37.0076 253.944L37.0889 253.883C37.1241 253.853 37.1693 253.836 37.216 253.836C37.2627 253.836 37.3078 253.853 37.343 253.883C37.3812 253.93 37.4098 253.983 37.4272 254.041C37.4447 254.099 37.4506 254.159 37.4447 254.219V258.506C37.4553 258.816 37.389 259.123 37.2516 259.4C37.1448 259.6 37.026 259.794 36.8958 259.98L33.847 264.592L36.8958 265.771C37.0209 265.809 37.1405 265.864 37.2516 265.933C37.3837 266.015 37.4447 266.238 37.4447 266.594V270.881C37.4469 271.039 37.412 271.196 37.343 271.338C37.2895 271.462 37.2012 271.568 37.0889 271.643H37.0076C36.9711 271.654 36.9324 271.654 36.8958 271.643L30.0358 268.473C29.893 268.418 29.7644 268.331 29.6598 268.219C29.5603 268.047 29.5176 267.848 29.5379 267.65V266.573Z" fill="white"/>
<path d="M44.5078 247.757C44.5671 247.518 44.6523 247.286 44.7619 247.066C44.8687 246.84 45.0426 246.652 45.2599 246.528L47.5567 245.197C47.5952 245.164 47.6438 245.147 47.6939 245.147C47.7441 245.147 47.7927 245.164 47.8311 245.197C47.8719 245.244 47.9028 245.299 47.922 245.358C47.9412 245.417 47.9483 245.48 47.9429 245.542C47.9505 245.627 47.9505 245.712 47.9429 245.796L42.1399 270.526C42.0885 270.759 42.0064 270.984 41.896 271.196C41.7894 271.431 41.6116 271.627 41.3878 271.755L39.1316 273.056C39.0948 273.087 39.048 273.104 38.9995 273.104C38.9511 273.104 38.9042 273.087 38.8674 273.056C38.8267 273.008 38.7958 272.953 38.7766 272.894C38.7574 272.835 38.7502 272.772 38.7556 272.71C38.7431 272.626 38.7431 272.54 38.7556 272.456L44.5078 247.757Z" fill="white"/>
<path d="M57.1202 251.76C57.1254 252.006 57.0841 252.251 56.9983 252.481C56.8872 252.713 56.7616 252.937 56.6222 253.152L49.7521 264.247C49.7246 264.295 49.6904 264.34 49.6504 264.379L49.5691 264.44C49.4675 264.501 49.376 264.501 49.3151 264.44C49.2764 264.394 49.2475 264.34 49.23 264.283C49.2126 264.225 49.2069 264.164 49.2134 264.104V259.827C49.2005 259.521 49.267 259.216 49.4065 258.943C49.5386 258.71 49.6504 258.516 49.7521 258.364L52.801 253.731L49.7521 252.583C49.6282 252.54 49.5117 252.478 49.4065 252.4C49.2744 252.309 49.2134 252.085 49.2134 251.74V247.452C49.2112 247.294 49.246 247.137 49.3151 246.995C49.3653 246.869 49.4543 246.762 49.5691 246.69H49.6504H49.7521L56.6222 249.86C56.7651 249.915 56.8937 250.002 56.9983 250.114C57.0935 250.288 57.1359 250.486 57.1202 250.683V251.76Z" fill="white"/>
<path d="M45.1075 159.364L23.623 171.75C23.4668 171.848 23.3365 171.982 23.2428 172.141C23.1491 172.301 23.0948 172.48 23.0844 172.664V184.663C23.0948 184.847 23.1491 185.026 23.2428 185.185C23.3365 185.345 23.4668 185.479 23.623 185.577L25.747 186.786C25.9061 186.861 26.0796 186.899 26.2552 186.899C26.4308 186.899 26.6043 186.861 26.7633 186.786L48.3088 174.361C48.4622 174.258 48.5897 174.121 48.6814 173.96C48.7731 173.8 48.8264 173.621 48.8373 173.436V161.447C48.8269 161.263 48.7726 161.084 48.6789 160.925C48.5852 160.766 48.4548 160.631 48.2987 160.533L46.1848 159.324C46.0136 159.25 45.8279 159.215 45.6415 159.222C45.4551 159.229 45.2727 159.278 45.1075 159.364Z" fill="#4CAF4F"/>
<path opacity="0.4" d="M45.1075 159.364L23.623 171.75C23.4668 171.848 23.3365 171.982 23.2428 172.141C23.1491 172.301 23.0948 172.48 23.0844 172.664V184.663C23.0948 184.847 23.1491 185.026 23.2428 185.185C23.3365 185.345 23.4668 185.479 23.623 185.577L25.747 186.786C25.9061 186.861 26.0796 186.899 26.2552 186.899C26.4308 186.899 26.6043 186.861 26.7633 186.786L48.3088 174.361C48.4622 174.258 48.5897 174.121 48.6814 173.96C48.7731 173.8 48.8264 173.621 48.8373 173.436V161.447C48.8269 161.263 48.7726 161.084 48.6789 160.925C48.5852 160.766 48.4548 160.631 48.2987 160.533L46.1848 159.324C46.0136 159.25 45.8279 159.215 45.6415 159.222C45.4551 159.229 45.2727 159.278 45.1075 159.364Z" fill="#103E13"/>
<path d="M48.8265 161.386C48.8265 161.122 48.5725 161.031 48.2981 161.183L26.8135 173.558C26.6565 173.656 26.5271 173.792 26.4375 173.954L23.2463 172.125C23.3318 171.967 23.4581 171.833 23.6122 171.739L45.0967 159.364C45.2643 159.282 45.4486 159.239 45.6354 159.239C45.8221 159.239 46.0064 159.282 46.174 159.364L48.2879 160.573C48.4328 160.66 48.5564 160.778 48.6496 160.919C48.7428 161.059 48.8033 161.219 48.8265 161.386Z" fill="#4CAF4F"/>
<path d="M48.3088 161.153L26.8141 173.558C26.6585 173.659 26.5293 173.795 26.4373 173.956C26.3453 174.117 26.2933 174.297 26.2856 174.483V186.471C26.2856 186.807 26.5194 186.949 26.8141 186.776L48.3088 174.361C48.4639 174.259 48.5926 174.123 48.6845 173.962C48.7764 173.801 48.8288 173.621 48.8373 173.436V161.447C48.8373 161.153 48.6543 161.01 48.3088 161.153Z" fill="#4CAF4F"/>
<g opacity="0.2">
<path opacity="0.2" d="M48.3088 161.153L26.8141 173.558C26.6585 173.659 26.5293 173.795 26.4373 173.956C26.3453 174.117 26.2933 174.297 26.2856 174.483V186.471C26.2856 186.807 26.5194 186.949 26.8141 186.776L48.3088 174.361C48.4639 174.259 48.5926 174.123 48.6845 173.962C48.7764 173.801 48.8288 173.621 48.8373 173.436V161.447C48.8373 161.153 48.6543 161.01 48.3088 161.153Z" fill="#103E13"/>
</g>
<path d="M31.5908 176.626C31.5908 176.728 31.5908 176.85 31.5908 177.012V178.028C31.5908 178.191 31.5908 178.313 31.5908 178.404C31.5997 178.548 31.6201 178.691 31.6518 178.831C31.6731 178.945 31.7259 179.051 31.8042 179.136C31.8742 179.208 31.9684 179.251 32.0685 179.258C32.2065 179.248 32.3397 179.203 32.4547 179.126C32.6036 179.053 32.7352 178.949 32.8408 178.821C32.9377 178.718 33.0198 178.601 33.0848 178.476C33.1483 178.363 33.1994 178.244 33.2372 178.12C33.2372 177.998 33.2982 177.896 33.3185 177.805C33.3283 177.707 33.3523 177.611 33.3896 177.52C33.4275 177.452 33.4839 177.396 33.5522 177.358L34.4466 176.84C34.4466 176.84 34.5279 176.84 34.5482 176.84C34.5655 176.857 34.579 176.878 34.5878 176.9C34.5965 176.923 34.6004 176.947 34.599 176.972C34.5898 177.35 34.5317 177.726 34.4263 178.089C34.3142 178.468 34.1609 178.832 33.9689 179.177C33.7792 179.514 33.5544 179.831 33.2982 180.121C33.0565 180.396 32.7715 180.629 32.4547 180.812C32.1902 180.982 31.8846 181.077 31.5705 181.087C31.3295 181.089 31.0954 181.007 30.9099 180.853C30.7087 180.675 30.5639 180.442 30.4932 180.182C30.3869 179.854 30.3287 179.512 30.3204 179.166C30.3204 178.882 30.3204 178.577 30.3204 178.252C30.3204 177.927 30.3204 177.592 30.3204 177.287C30.3359 176.883 30.3904 176.481 30.483 176.088C30.5825 175.687 30.7256 175.299 30.9099 174.93C31.0854 174.564 31.3075 174.222 31.5705 173.914C31.8231 173.62 32.1217 173.37 32.4547 173.172C32.7102 173.015 32.9993 172.921 33.2982 172.898C33.5333 172.88 33.7681 172.937 33.9689 173.06C34.1747 173.196 34.3343 173.391 34.4263 173.619C34.5418 173.91 34.6004 174.22 34.599 174.533C34.598 174.601 34.5806 174.667 34.5482 174.726C34.5289 174.78 34.4933 174.826 34.4466 174.859L33.5522 175.377C33.4709 175.377 33.4201 175.427 33.3896 175.377C33.3493 175.32 33.3248 175.253 33.3185 175.184C33.3185 175.113 33.3185 175.031 33.2372 174.95C33.201 174.878 33.1488 174.816 33.0848 174.767C33.0112 174.723 32.9264 174.702 32.8408 174.706C32.7025 174.722 32.57 174.771 32.4547 174.848C32.3043 174.928 32.1727 175.039 32.0685 175.173C31.9596 175.298 31.8705 175.439 31.8042 175.59C31.7339 175.742 31.6827 175.903 31.6518 176.068C31.6189 176.252 31.5985 176.439 31.5908 176.626Z" fill="#F5F7FA"/>
<path d="M37.4751 170.347C37.7163 170.192 37.992 170.098 38.278 170.073C38.4996 170.057 38.7214 170.102 38.9183 170.205C39.0937 170.311 39.2375 170.462 39.335 170.642C39.4365 170.833 39.4889 171.046 39.4874 171.262C39.5017 171.322 39.5017 171.385 39.4874 171.445C39.4701 171.499 39.4341 171.546 39.3858 171.577L38.4914 172.095C38.4381 172.109 38.3821 172.109 38.3288 172.095L38.217 172.034L38.1459 171.963C38.1111 171.928 38.0697 171.9 38.0239 171.882C37.9537 171.866 37.8807 171.866 37.8105 171.882C37.7041 171.892 37.6023 171.931 37.5158 171.993C37.4272 172.045 37.3423 172.103 37.2617 172.166C37.1834 172.226 37.1119 172.294 37.0483 172.369C36.988 172.448 36.9368 172.533 36.8958 172.623C36.8585 172.717 36.8412 172.817 36.845 172.918C36.8351 172.998 36.857 173.078 36.906 173.142C36.9353 173.17 36.9707 173.191 37.0095 173.203C37.0483 173.216 37.0894 173.219 37.1296 173.213C37.2669 173.207 37.4033 173.187 37.5361 173.152L38.1662 172.989C38.3804 172.926 38.6036 172.898 38.8268 172.908C38.9972 172.914 39.1611 172.974 39.2943 173.081C39.4317 173.21 39.5303 173.376 39.5789 173.558C39.6473 173.82 39.6781 174.09 39.6703 174.361C39.6676 174.706 39.6128 175.048 39.5077 175.377C39.4032 175.732 39.2564 176.073 39.0707 176.393C38.8812 176.702 38.6523 176.986 38.3898 177.236C38.139 177.49 37.8553 177.708 37.5463 177.886C37.2883 178.051 36.9965 178.155 36.6926 178.191C36.4733 178.22 36.2504 178.181 36.054 178.08C35.8576 177.978 35.6974 177.818 35.595 177.622C35.4913 177.403 35.4358 177.164 35.4324 176.921C35.4361 176.854 35.4534 176.788 35.4832 176.728C35.4999 176.679 35.5319 176.636 35.5747 176.606L36.4792 176.088C36.5235 176.056 36.5767 176.038 36.6316 176.037C36.6705 176.041 36.7066 176.059 36.7332 176.088L36.8247 176.169C36.8602 176.22 36.9096 176.258 36.967 176.281C37.0433 176.303 37.1244 176.303 37.2007 176.281C37.3246 176.271 37.4437 176.229 37.5463 176.159C37.7736 176.033 37.9794 175.872 38.156 175.682C38.3108 175.528 38.3985 175.32 38.4 175.102C38.4046 175.062 38.3986 175.021 38.3826 174.984C38.3666 174.946 38.341 174.914 38.3085 174.889C38.2214 174.87 38.1313 174.87 38.0443 174.889C37.8894 174.906 37.7363 174.936 37.5869 174.98L36.9263 175.153C36.756 175.216 36.5719 175.233 36.3932 175.2C36.2145 175.168 36.0476 175.089 35.91 174.97C35.6517 174.604 35.536 174.156 35.5848 173.71C35.5852 173.391 35.6296 173.073 35.7169 172.766C35.8067 172.433 35.9364 172.112 36.1031 171.811C36.2736 171.504 36.4781 171.218 36.7129 170.957C36.9356 170.717 37.1924 170.512 37.4751 170.347Z" fill="#F5F7FA"/>
<path d="M42.4041 167.472C42.6473 167.322 42.9224 167.232 43.207 167.208C43.4254 167.19 43.6442 167.236 43.8371 167.34C44.0209 167.438 44.1699 167.591 44.264 167.777C44.3621 167.969 44.4143 168.181 44.4164 168.397C44.4307 168.457 44.4307 168.519 44.4164 168.58C44.3932 168.631 44.3584 168.676 44.3148 168.712L43.4103 169.23C43.3608 169.246 43.3073 169.246 43.2578 169.23C43.2128 169.226 43.1701 169.208 43.1359 169.179L43.0749 169.108C43.0401 169.073 42.9987 169.045 42.9529 169.027C42.8827 169.011 42.8098 169.011 42.7395 169.027C42.6337 169.046 42.5332 169.087 42.4448 169.149C42.354 169.197 42.2688 169.255 42.1907 169.321C42.1124 169.381 42.0409 169.449 41.9773 169.524C41.9143 169.601 41.863 169.687 41.8249 169.778C41.7843 169.871 41.7636 169.972 41.7639 170.073C41.7589 170.154 41.7843 170.234 41.835 170.297C41.8627 170.324 41.8964 170.345 41.9334 170.357C41.9704 170.369 42.0098 170.373 42.0484 170.368C42.1892 170.363 42.329 170.343 42.4651 170.307L43.0952 170.144C43.3049 170.076 43.5256 170.048 43.7457 170.063C43.9199 170.064 44.0885 170.125 44.2233 170.236C44.3554 170.364 44.4503 170.525 44.4977 170.703C44.5694 170.968 44.6036 171.241 44.5993 171.516C44.5937 171.861 44.539 172.203 44.4367 172.532C44.2206 173.224 43.8366 173.853 43.3188 174.361C43.0653 174.611 42.782 174.83 42.4753 175.011C42.2145 175.17 41.924 175.273 41.6216 175.316C41.3942 175.341 41.1643 175.299 40.961 175.194C40.7743 175.087 40.6226 174.928 40.524 174.737C40.4143 174.523 40.3585 174.286 40.3614 174.046C40.347 173.982 40.347 173.916 40.3614 173.853C40.3847 173.804 40.4196 173.762 40.463 173.731L41.3675 173.213C41.4285 173.213 41.4793 173.152 41.5098 173.213C41.5464 173.203 41.585 173.203 41.6216 173.213L41.7029 173.304C41.7474 173.349 41.7988 173.387 41.8553 173.416C41.9317 173.438 42.0128 173.438 42.0891 173.416C42.2115 173.4 42.3292 173.358 42.4346 173.294C42.6598 173.165 42.8651 173.004 43.0444 172.816C43.1991 172.663 43.2868 172.455 43.2883 172.237C43.293 172.197 43.287 172.156 43.271 172.118C43.2549 172.081 43.2294 172.048 43.1969 172.024C43.1104 172 43.0191 172 42.9326 172.024C42.7777 172.04 42.6246 172.071 42.4753 172.115L41.8147 172.278C41.6453 172.342 41.4617 172.36 41.283 172.33C41.1043 172.3 40.937 172.222 40.7984 172.105C40.5366 171.736 40.4175 171.285 40.463 170.835C40.4677 170.515 40.5156 170.197 40.6053 169.89C40.6907 169.559 40.8206 169.241 40.9915 168.945C41.1583 168.633 41.3631 168.343 41.6013 168.082C41.8388 167.842 42.1091 167.636 42.4041 167.472Z" fill="#F5F7FA"/>
<path d="M45.1075 184.288L23.623 196.714C23.4677 196.816 23.3383 196.952 23.2448 197.113C23.1513 197.273 23.0964 197.453 23.0844 197.638V209.627C23.0948 209.813 23.1491 209.993 23.2427 210.154C23.3363 210.315 23.4666 210.451 23.623 210.552L25.747 211.751C25.9053 211.828 26.0791 211.868 26.2552 211.868C26.4313 211.868 26.6051 211.828 26.7633 211.751L48.258 199.376C48.4103 199.271 48.537 199.134 48.6286 198.974C48.7201 198.814 48.7741 198.635 48.7865 198.451V186.462C48.776 186.277 48.7218 186.096 48.6282 185.935C48.5346 185.775 48.4042 185.638 48.2479 185.538L46.134 184.339C45.9769 184.256 45.8036 184.209 45.6263 184.2C45.4491 184.191 45.272 184.221 45.1075 184.288Z" fill="#4CAF4F"/>
<path opacity="0.4" d="M45.1075 184.288L23.623 196.714C23.4677 196.816 23.3383 196.952 23.2448 197.113C23.1513 197.273 23.0964 197.453 23.0844 197.638V209.627C23.0948 209.813 23.1491 209.993 23.2427 210.154C23.3363 210.315 23.4666 210.451 23.623 210.552L25.747 211.751C25.9053 211.828 26.0791 211.868 26.2552 211.868C26.4313 211.868 26.6051 211.828 26.7633 211.751L48.258 199.376C48.4103 199.271 48.537 199.134 48.6286 198.974C48.7201 198.814 48.7741 198.635 48.7865 198.451V186.462C48.776 186.277 48.7218 186.096 48.6282 185.935C48.5346 185.775 48.4042 185.638 48.2479 185.538L46.134 184.339C45.9769 184.256 45.8036 184.209 45.6263 184.2C45.4491 184.191 45.272 184.221 45.1075 184.288Z" fill="#103E13"/>
<path d="M48.8265 186.309C48.8265 186.045 48.5725 185.943 48.2981 186.096L26.8135 198.481C26.6565 198.579 26.5271 198.715 26.4375 198.877L23.2463 197.048C23.3318 196.889 23.4581 196.756 23.6122 196.662L45.0967 184.287C45.2636 184.202 45.4482 184.158 45.6354 184.158C45.8226 184.158 46.0071 184.202 46.174 184.287L48.2981 185.537C48.4359 185.621 48.5542 185.733 48.6453 185.866C48.7365 185.999 48.7982 186.15 48.8265 186.309Z" fill="#4CAF4F"/>
<path d="M48.3088 186.096L26.8141 198.481C26.6593 198.58 26.5304 198.715 26.4385 198.874C26.3465 199.033 26.2941 199.212 26.2856 199.395V211.394C26.2856 211.729 26.5194 211.872 26.8141 211.699L48.3088 199.324C48.4627 199.222 48.5906 199.085 48.6824 198.924C48.7741 198.764 48.8272 198.584 48.8373 198.4V186.411C48.8373 186.065 48.6543 185.933 48.3088 186.096Z" fill="#4CAF4F"/>
<g opacity="0.2">
<path opacity="0.2" d="M48.3088 186.096L26.8141 198.481C26.6593 198.58 26.5304 198.715 26.4385 198.874C26.3465 199.033 26.2941 199.212 26.2856 199.395V211.394C26.2856 211.729 26.5194 211.872 26.8141 211.699L48.3088 199.324C48.4627 199.222 48.5906 199.085 48.6824 198.924C48.7741 198.764 48.8272 198.584 48.8373 198.4V186.411C48.8373 186.065 48.6543 185.933 48.3088 186.096Z" fill="#103E13"/>
</g>
<path d="M31.6923 198.684C31.7009 198.675 31.7111 198.668 31.7225 198.663C31.7338 198.658 31.746 198.656 31.7584 198.656C31.7707 198.656 31.783 198.658 31.7943 198.663C31.8057 198.668 31.8159 198.675 31.8244 198.684C31.846 198.705 31.8626 198.73 31.8732 198.758C31.8837 198.787 31.8879 198.817 31.8854 198.847V205.674C31.8831 205.756 31.8622 205.835 31.8244 205.908C31.7977 205.971 31.7514 206.025 31.6923 206.06L30.798 206.578C30.7895 206.587 30.7792 206.594 30.7678 206.599C30.7565 206.604 30.7443 206.607 30.7319 206.607C30.7196 206.607 30.7074 206.604 30.696 206.599C30.6847 206.594 30.6744 206.587 30.6659 206.578C30.6659 206.578 30.6659 206.497 30.6659 206.416V203.825L29.1414 204.709V207.29C29.1419 207.371 29.1209 207.452 29.0805 207.523C29.0565 207.588 29.0141 207.645 28.9585 207.686L28.054 208.204C28.0356 208.22 28.0122 208.228 27.9879 208.228C27.9637 208.228 27.9403 208.22 27.9219 208.204C27.9017 208.148 27.9017 208.087 27.9219 208.031V201.204C27.9078 201.126 27.9078 201.047 27.9219 200.97C27.9521 200.906 27.9974 200.85 28.054 200.807L28.9585 200.289C28.9761 200.276 28.9975 200.269 29.0195 200.269C29.0415 200.269 29.0629 200.276 29.0805 200.289C29.1022 200.312 29.1189 200.339 29.1294 200.369C29.14 200.399 29.144 200.431 29.1414 200.462V203.002L30.6659 202.128V199.578C30.6477 199.501 30.6477 199.421 30.6659 199.344C30.696 199.283 30.7415 199.231 30.798 199.192L31.6923 198.684Z" fill="#F5F7FA"/>
<path d="M36.7129 195.788C36.7214 195.779 36.7317 195.772 36.743 195.767C36.7544 195.763 36.7666 195.76 36.7789 195.76C36.7913 195.76 36.8035 195.763 36.8148 195.767C36.8262 195.772 36.8365 195.779 36.845 195.788C36.8645 195.841 36.8645 195.898 36.845 195.951V197.068C36.8603 197.146 36.8603 197.225 36.845 197.302C36.8177 197.368 36.7718 197.425 36.7129 197.465L35.5035 198.166V203.581C35.4992 203.666 35.4785 203.748 35.4425 203.825C35.4123 203.889 35.367 203.945 35.3104 203.987L34.4059 204.506C34.3862 204.518 34.3633 204.525 34.3398 204.525C34.3164 204.525 34.2935 204.518 34.2738 204.506C34.2544 204.45 34.2544 204.389 34.2738 204.333V198.918L33.0644 199.609C33.046 199.624 33.0225 199.633 32.9983 199.633C32.9741 199.633 32.9507 199.624 32.9322 199.609C32.8977 199.558 32.8799 199.497 32.8814 199.436V198.318C32.8825 198.238 32.8998 198.158 32.9322 198.084C32.9595 198.019 33.0054 197.962 33.0644 197.922L36.7129 195.788Z" fill="#F5F7FA"/>
<path d="M39.8634 199.497C39.8266 199.461 39.7957 199.42 39.772 199.375L39.1215 198.003V201.498C39.1243 201.579 39.1068 201.66 39.0707 201.732C39.0435 201.798 38.9975 201.854 38.9386 201.895L38.0443 202.413C38.0258 202.428 38.0024 202.437 37.9782 202.437C37.954 202.437 37.9305 202.428 37.9121 202.413C37.9007 202.385 37.8948 202.356 37.8948 202.326C37.8948 202.297 37.9007 202.267 37.9121 202.24V195.423C37.8932 195.346 37.8932 195.266 37.9121 195.189C37.9394 195.123 37.9853 195.066 38.0443 195.026L38.837 194.569C38.9284 194.569 38.9996 194.569 39.0402 194.569C39.0756 194.602 39.1064 194.64 39.1317 194.681L40.2496 196.967L41.3574 193.401C41.3807 193.323 41.4113 193.249 41.4489 193.177C41.4874 193.078 41.5592 192.995 41.6521 192.944L42.4448 192.486C42.4534 192.477 42.4636 192.47 42.475 192.465C42.4863 192.461 42.4985 192.458 42.5109 192.458C42.5232 192.458 42.5354 192.461 42.5468 192.465C42.5582 192.47 42.5684 192.477 42.5769 192.486C42.5888 192.512 42.5949 192.54 42.5949 192.568C42.5949 192.596 42.5888 192.623 42.5769 192.649V199.476C42.5959 199.553 42.5959 199.633 42.5769 199.71C42.5467 199.774 42.5014 199.83 42.4448 199.873L41.5505 200.391C41.5308 200.404 41.5079 200.41 41.4844 200.41C41.461 200.41 41.4381 200.404 41.4184 200.391C41.4069 200.364 41.401 200.334 41.401 200.305C41.401 200.275 41.4069 200.245 41.4184 200.218V196.713L40.7679 198.826C40.7429 198.906 40.7123 198.984 40.6765 199.06C40.6423 199.136 40.5856 199.2 40.5139 199.243L40.0768 199.487C39.9549 199.527 39.9041 199.537 39.8634 199.497Z" fill="#F5F7FA"/>
<path d="M47.3027 195.382C47.3027 195.382 47.3942 195.382 47.4247 195.382C47.4462 195.403 47.4629 195.428 47.4734 195.456C47.484 195.484 47.4882 195.515 47.4857 195.544V196.713C47.4862 196.795 47.4652 196.875 47.4247 196.947C47.4038 197.013 47.3608 197.07 47.3027 197.109L44.1217 198.938C44.1033 198.954 44.0799 198.962 44.0557 198.962C44.0314 198.962 44.008 198.954 43.9896 198.938C43.9703 198.882 43.9703 198.821 43.9896 198.765V191.938C43.9756 191.864 43.9756 191.788 43.9896 191.714C44.0169 191.648 44.0628 191.592 44.1217 191.552L45.0161 191.033C45.0246 191.025 45.0349 191.017 45.0462 191.013C45.0576 191.008 45.0698 191.005 45.0821 191.005C45.0945 191.005 45.1067 191.008 45.1181 191.013C45.1294 191.017 45.1397 191.025 45.1482 191.033C45.1697 191.054 45.1864 191.08 45.1969 191.108C45.2075 191.136 45.2117 191.166 45.2092 191.196V196.621L47.3027 195.382Z" fill="#F5F7FA"/>
<path d="M45.1075 209.21L23.623 221.585C23.4666 221.685 23.3363 221.822 23.2427 221.982C23.1491 222.143 23.0948 222.324 23.0844 222.509V234.498C23.0948 234.684 23.1491 234.864 23.2427 235.025C23.3363 235.186 23.4666 235.322 23.623 235.423L25.747 236.622C25.9061 236.696 26.0796 236.735 26.2552 236.735C26.4308 236.735 26.6043 236.696 26.7633 236.622L48.3088 224.247C48.4611 224.143 48.5878 224.005 48.6794 223.845C48.7709 223.685 48.8249 223.506 48.8373 223.322V211.333C48.8269 211.148 48.7726 210.967 48.679 210.806C48.5854 210.646 48.455 210.509 48.2987 210.409L46.1848 209.21C46.0179 209.125 45.8333 209.081 45.6461 209.081C45.4589 209.081 45.2744 209.125 45.1075 209.21Z" fill="#4CAF4F"/>
<path opacity="0.4" d="M45.1075 209.21L23.623 221.585C23.4666 221.685 23.3363 221.822 23.2427 221.982C23.1491 222.143 23.0948 222.324 23.0844 222.509V234.498C23.0948 234.684 23.1491 234.864 23.2427 235.025C23.3363 235.186 23.4666 235.322 23.623 235.423L25.747 236.622C25.9061 236.696 26.0796 236.735 26.2552 236.735C26.4308 236.735 26.6043 236.696 26.7633 236.622L48.3088 224.247C48.4611 224.143 48.5878 224.005 48.6794 223.845C48.7709 223.685 48.8249 223.506 48.8373 223.322V211.333C48.8269 211.148 48.7726 210.967 48.679 210.806C48.5854 210.646 48.455 210.509 48.2987 210.409L46.1848 209.21C46.0179 209.125 45.8333 209.081 45.6461 209.081C45.4589 209.081 45.2744 209.125 45.1075 209.21Z" fill="#103E13"/>
<path d="M48.8265 211.232C48.8265 210.968 48.5725 210.866 48.2981 211.018L26.8135 223.393C26.6587 223.498 26.53 223.637 26.4375 223.8L23.2463 221.961C23.3354 221.807 23.4611 221.678 23.6122 221.585L45.1069 209.21C45.2745 209.127 45.4587 209.084 45.6455 209.084C45.8323 209.084 46.0166 209.127 46.1842 209.21L48.2981 210.419C48.4406 210.507 48.5618 210.626 48.6532 210.766C48.7446 210.907 48.8037 211.066 48.8265 211.232Z" fill="#4CAF4F"/>
<path d="M48.3088 211.018L26.8141 223.393C26.6602 223.496 26.5323 223.633 26.4405 223.793C26.3488 223.954 26.2958 224.133 26.2856 224.318V236.337C26.2856 236.683 26.5194 236.815 26.8141 236.652L48.3088 224.247C48.4627 224.144 48.5906 224.007 48.6824 223.847C48.7741 223.686 48.8272 223.507 48.8373 223.322V211.333C48.8373 210.988 48.6543 210.856 48.3088 211.018Z" fill="#4CAF4F"/>
<g opacity="0.2">
<path opacity="0.2" d="M48.3088 211.018L26.8141 223.393C26.6602 223.496 26.5323 223.633 26.4405 223.793C26.3488 223.954 26.2958 224.133 26.2856 224.318V236.337C26.2856 236.683 26.5194 236.815 26.8141 236.652L48.3088 224.247C48.4627 224.144 48.5906 224.007 48.6824 223.847C48.7741 223.686 48.8272 223.507 48.8373 223.322V211.333C48.8373 210.988 48.6543 210.856 48.3088 211.018Z" fill="#103E13"/>
</g>
<path d="M32.0074 226.228C32.0074 226.319 32.0074 226.451 32.0074 226.614V227.63C32.0074 227.803 32.0074 227.925 32.0074 228.016C32.0163 228.16 32.0367 228.302 32.0684 228.443C32.0982 228.554 32.1501 228.657 32.2209 228.748C32.2919 228.818 32.3854 228.861 32.4851 228.869C32.6231 228.86 32.7563 228.814 32.8713 228.737C33.0159 228.658 33.1464 228.555 33.2575 228.433C33.3519 228.325 33.4369 228.209 33.5115 228.087C33.5701 227.973 33.6177 227.854 33.6538 227.732C33.6538 227.61 33.7148 227.508 33.7351 227.406C33.7512 227.313 33.775 227.221 33.8063 227.132C33.841 227.061 33.8982 227.004 33.9689 226.97L34.8632 226.451C34.8792 226.439 34.8989 226.432 34.9191 226.432C34.9393 226.432 34.959 226.439 34.975 226.451C34.975 226.451 34.975 226.523 34.975 226.583C34.9708 226.962 34.9126 227.339 34.8022 227.701C34.6938 228.079 34.5438 228.443 34.3551 228.788C34.1644 229.125 33.936 229.438 33.6742 229.723C33.4353 230 33.1498 230.234 32.8306 230.414C32.5697 230.584 32.268 230.683 31.9566 230.698C31.7157 230.701 31.4815 230.618 31.296 230.465C31.095 230.284 30.9473 230.052 30.8692 229.794C30.7646 229.465 30.7064 229.123 30.6964 228.778C30.6964 228.494 30.6964 228.189 30.6964 227.853C30.6964 227.518 30.6964 227.203 30.6964 226.898C30.7097 226.494 30.7677 226.092 30.8692 225.7C30.995 225.299 31.1655 224.914 31.3773 224.551C31.5541 224.186 31.7761 223.845 32.0379 223.535C32.2905 223.242 32.5892 222.991 32.9221 222.794C33.1777 222.637 33.4667 222.543 33.7656 222.519C34.0044 222.496 34.244 222.554 34.4465 222.682C34.6495 222.818 34.8056 223.013 34.8937 223.241C35.0143 223.53 35.0731 223.842 35.0665 224.155C35.0809 224.219 35.0809 224.285 35.0665 224.348C35.0403 224.401 35.002 224.446 34.9547 224.48L34.0603 224.998C33.979 224.998 33.9282 224.998 33.8977 224.998C33.8621 224.939 33.8379 224.874 33.8266 224.805C33.8266 224.734 33.8266 224.653 33.7453 224.572C33.7183 224.497 33.6685 224.433 33.603 224.389C33.5253 224.346 33.4375 224.325 33.3489 224.328C33.2122 224.344 33.0805 224.389 32.9628 224.46C32.8168 224.546 32.6863 224.656 32.5766 224.785C32.4731 224.917 32.3845 225.06 32.3123 225.212C32.2494 225.367 32.1984 225.527 32.1599 225.689C32.097 225.865 32.0461 226.045 32.0074 226.228Z" fill="#F5F7FA"/>
<path d="M38.3084 224.826V226.563C38.3226 226.64 38.3226 226.72 38.3084 226.797C38.2812 226.863 38.2353 226.919 38.1763 226.959L37.3125 227.457C37.2941 227.473 37.2706 227.482 37.2464 227.482C37.2222 227.482 37.1988 227.473 37.1803 227.457C37.1689 227.43 37.163 227.401 37.163 227.371C37.163 227.341 37.1689 227.312 37.1803 227.285V225.547L36.164 226.157C36.1555 226.166 36.1453 226.173 36.1339 226.178C36.1225 226.182 36.1103 226.185 36.098 226.185C36.0856 226.185 36.0734 226.182 36.0621 226.178C36.0507 226.173 36.0405 226.166 36.0319 226.157C36.0125 226.104 36.0125 226.047 36.0319 225.994V224.927C36.0166 224.85 36.0166 224.771 36.0319 224.694C36.0592 224.628 36.1051 224.571 36.164 224.531L37.1803 223.922V222.113C37.1622 222.036 37.1622 221.956 37.1803 221.879C37.2077 221.816 37.2538 221.763 37.3125 221.727L38.1763 221.219C38.196 221.206 38.2189 221.2 38.2424 221.2C38.2658 221.2 38.2887 221.206 38.3084 221.219C38.3278 221.275 38.3278 221.336 38.3084 221.392V223.129L39.3247 222.519C39.3444 222.507 39.3674 222.5 39.3908 222.5C39.4142 222.5 39.4372 222.507 39.4569 222.519C39.4768 222.543 39.4917 222.571 39.5004 222.601C39.5092 222.63 39.5116 222.661 39.5077 222.692V223.759C39.5104 223.84 39.4929 223.92 39.4569 223.993C39.4266 224.057 39.3813 224.113 39.3247 224.155L38.3084 224.826Z" fill="#F5F7FA"/>
<path d="M42.8614 222.194V223.942C42.8591 224.023 42.8382 224.103 42.8004 224.176C42.7735 224.236 42.7315 224.288 42.6785 224.328L41.8045 224.826C41.7968 224.834 41.7875 224.841 41.7769 224.846C41.7664 224.851 41.755 224.853 41.7435 224.853C41.732 224.853 41.7206 224.851 41.71 224.846C41.6995 224.841 41.6901 224.834 41.6825 224.826C41.661 224.805 41.6443 224.779 41.6338 224.751C41.6232 224.723 41.6191 224.693 41.6215 224.663V222.916L40.6052 223.535C40.5868 223.551 40.5634 223.56 40.5392 223.56C40.515 223.56 40.4915 223.551 40.4731 223.535C40.4513 223.513 40.4346 223.485 40.4241 223.456C40.4136 223.426 40.4095 223.394 40.4121 223.363V222.296C40.4145 222.214 40.4354 222.135 40.4731 222.062C40.4971 221.997 40.5441 221.943 40.6052 221.91L41.6215 221.29V219.553C41.621 219.471 41.6421 219.39 41.6825 219.319C41.7065 219.254 41.7489 219.198 41.8045 219.156L42.6785 218.659C42.6861 218.65 42.6955 218.643 42.706 218.638C42.7165 218.634 42.7279 218.631 42.7395 218.631C42.751 218.631 42.7624 218.634 42.7729 218.638C42.7834 218.643 42.7928 218.65 42.8004 218.659C42.822 218.68 42.8386 218.705 42.8492 218.733C42.8597 218.761 42.8639 218.791 42.8614 218.821V220.569L43.8777 219.959C43.8863 219.95 43.8965 219.943 43.9079 219.938C43.9192 219.933 43.9314 219.931 43.9438 219.931C43.9561 219.931 43.9683 219.933 43.9797 219.938C43.991 219.943 44.0013 219.95 44.0098 219.959C44.03 220.015 44.03 220.076 44.0098 220.132V221.148C44.0239 221.222 44.0239 221.298 44.0098 221.371C43.9826 221.437 43.9367 221.494 43.8777 221.534L42.8614 222.194Z" fill="#F5F7FA"/>
<path d="M282.087 68.2693L264.292 78.5512C264.108 78.6742 263.955 78.8382 263.846 79.0305C263.737 79.2227 263.674 79.4378 263.662 79.6587V101.401C263.673 101.621 263.737 101.834 263.849 102.023C263.96 102.213 264.116 102.372 264.302 102.488L266.823 103.931C267.022 104.029 267.241 104.08 267.463 104.08C267.685 104.08 267.904 104.029 268.103 103.931L285.899 93.6389C286.082 93.5182 286.235 93.356 286.344 93.1654C286.454 92.9747 286.517 92.7611 286.529 92.5416V70.7991C286.517 70.5786 286.452 70.364 286.341 70.1732C286.23 69.9824 286.075 69.8208 285.888 69.7018L283.419 68.2591C283.213 68.1521 282.984 68.0971 282.752 68.0989C282.52 68.1007 282.292 68.1592 282.087 68.2693Z" fill="#333333"/>
<path d="M268.103 103.921C267.903 104.016 267.685 104.066 267.463 104.066C267.241 104.066 267.023 104.016 266.823 103.921L264.302 102.478C264.116 102.362 263.96 102.203 263.849 102.013C263.737 101.824 263.673 101.61 263.662 101.391V79.6485C263.672 79.4177 263.742 79.1935 263.865 78.9983L267.656 81.1725C267.534 81.3757 267.463 81.5993 267.463 81.2538V102.996C267.463 103.921 267.727 104.134 268.103 103.921Z" fill="#333333"/>
<path opacity="0.4" d="M286.518 70.7281C286.468 70.403 286.214 70.2912 285.898 70.4741L268.103 80.7662C267.918 80.8826 267.764 81.0432 267.656 81.2336L263.855 79.0593C263.966 78.8741 264.119 78.7175 264.302 78.6021L282.098 68.31C282.294 68.2101 282.512 68.158 282.733 68.158C282.953 68.158 283.171 68.2101 283.368 68.31L285.888 69.7426C286.059 69.8502 286.205 69.9944 286.314 70.1648C286.423 70.3352 286.493 70.5275 286.518 70.7281Z" fill="white"/>
<path d="M261.924 95.7826C261.518 95.5387 258.479 93.8318 258.387 93.7506C258.312 93.7057 258.248 93.6446 258.199 93.5719C258.151 93.4991 258.119 93.4164 258.106 93.3298C258.094 93.2432 258.101 93.1549 258.126 93.0713C258.152 92.9877 258.196 92.9108 258.255 92.8463L263.662 86.6487L267.463 88.8331L261.812 94.8682C261.752 94.9322 261.707 95.0087 261.679 95.0922C261.652 95.1758 261.643 95.2643 261.654 95.3515C261.665 95.4388 261.694 95.5226 261.741 95.5971C261.788 95.6716 261.85 95.7349 261.924 95.7826Z" fill="#37474F"/>
<path opacity="0.4" d="M261.924 95.7826C261.518 95.5387 258.479 93.8318 258.387 93.7506C258.312 93.7057 258.248 93.6446 258.199 93.5719C258.151 93.4991 258.119 93.4164 258.106 93.3298C258.094 93.2432 258.101 93.1549 258.126 93.0713C258.152 92.9877 258.196 92.9108 258.255 92.8463L263.662 86.6487L267.463 88.8331L261.812 94.8682C261.752 94.9322 261.707 95.0087 261.679 95.0922C261.652 95.1758 261.643 95.2643 261.654 95.3515C261.665 95.4388 261.694 95.5226 261.741 95.5971C261.788 95.6716 261.85 95.7349 261.924 95.7826Z" fill="white"/>
<path d="M285.899 70.4232L268.103 80.7153C267.917 80.8343 267.762 80.9958 267.65 81.1867C267.539 81.3775 267.475 81.592 267.463 81.8126V88.8535L261.812 94.8885C261.718 94.9624 261.65 95.064 261.617 95.1789C261.584 95.2937 261.588 95.416 261.629 95.5285C261.669 95.6409 261.744 95.7377 261.843 95.8053C261.941 95.8728 262.059 95.9075 262.178 95.9045L267.463 95.5185V103.596C267.463 104.002 267.747 104.165 268.103 103.961L285.899 93.6693C286.082 93.5486 286.235 93.3864 286.344 93.1958C286.454 93.0052 286.517 92.7915 286.529 92.5721V70.8296C286.529 70.3825 286.244 70.22 285.899 70.4232Z" fill="#37474F"/>
<path d="M282.403 89.7171L278.754 86.984L282.514 79.7907C282.683 79.47 282.717 79.0956 282.609 78.7498C282.502 78.404 282.261 78.1151 281.94 77.9467C281.619 77.7782 281.245 77.7441 280.899 77.8518C280.553 77.9594 280.264 78.2 280.096 78.5207L276.539 85.3178L273.286 82.859C273.144 82.751 272.981 82.6721 272.808 82.6268C272.634 82.5816 272.454 82.571 272.276 82.5955C272.099 82.62 271.928 82.6793 271.773 82.7698C271.619 82.8603 271.484 82.9804 271.376 83.1232C271.268 83.2659 271.189 83.4286 271.143 83.6019C271.098 83.7751 271.088 83.9556 271.112 84.1329C271.137 84.3103 271.196 84.4811 271.286 84.6356C271.377 84.7901 271.497 84.9252 271.64 85.0333L275.258 87.7663L271.65 94.6548C271.482 94.9769 271.449 95.3525 271.557 95.6992C271.666 96.0458 271.908 96.3353 272.229 96.504C272.425 96.6033 272.64 96.6555 272.859 96.6564C273.109 96.6567 273.353 96.5887 273.567 96.4597C273.78 96.3308 273.954 96.1457 274.069 95.9248L277.463 89.4427L280.726 91.9015C281.015 92.1176 281.378 92.2111 281.735 92.1617C282.093 92.1122 282.417 91.9238 282.636 91.6373C282.859 91.3513 282.959 90.9888 282.916 90.629C282.872 90.2692 282.687 89.9413 282.403 89.7171Z" fill="#F5F7FA"/>
<path d="M365.632 349.394C366.354 350.816 366.677 352.406 366.567 353.997C366.496 355.388 365.663 357.197 366.039 360.336C366.415 363.476 367.136 364.472 367.472 366.686C367.669 367.703 367.662 368.748 367.45 369.761C367.239 370.775 366.829 371.736 366.242 372.589C364.941 374.703 362.075 376.379 356.404 376.176C351.831 376.013 349.981 373.666 349.88 370.974L365.632 349.394Z" fill="#263238"/>
<path d="M364.331 342.912C364.472 343.496 364.564 344.091 364.606 344.69C364.779 345.757 365.094 346.722 365.348 347.809C365.419 348.083 365.48 348.358 365.541 348.632C365.978 350.735 365.541 352.91 365.541 355.053C365.716 357.586 366.163 360.093 366.872 362.531C367.889 366.981 368.061 369.958 364.169 373.037C362.136 374.662 359.87 374.713 357.268 374.784C355.267 374.854 353.285 374.376 351.536 373.402C349.87 372.173 349.89 371.137 349.88 370.74C349.727 366.016 351.435 360.519 351.78 355.805C351.909 354.536 351.936 353.258 351.862 351.985C351.699 350.42 351.16 348.866 350.987 347.291C350.866 346.704 350.941 346.094 351.201 345.554C351.464 345.255 351.787 345.016 352.15 344.853C352.513 344.69 352.907 344.607 353.305 344.609C355.337 344.334 357.451 344.131 359.535 343.979C360.025 343.886 360.532 343.988 360.947 344.263C361.354 344.629 361.364 345.279 361.476 345.777C361.587 346.275 361.974 346.915 362.492 346.793C362.663 346.738 362.815 346.633 362.927 346.492C363.039 346.351 363.107 346.18 363.122 346.001C363.173 345.655 363.325 342.953 363.315 342.556C363.356 342.577 364.088 342.465 364.331 342.912Z" fill="#37474F"/>
<path d="M295.508 358.589C295.173 359.424 295.173 360.355 295.508 361.19C295.843 361.962 299.715 364.36 305.071 364.238C309.035 364.111 312.893 362.933 316.25 360.824C318.334 359.554 320.468 359.392 323.121 359.341C325.773 359.29 328.883 358.325 329.788 357.136C330.128 355.972 330.128 354.734 329.788 353.57L295.508 358.589Z" fill="#263238"/>
<path d="M314.899 342.77C314.694 343.152 314.51 343.545 314.35 343.948C313.693 345.4 312.679 346.662 311.403 347.616C309.555 348.894 307.571 349.964 305.488 350.806C304.167 351.396 302.785 351.558 301.423 352.025C299.913 352.508 298.459 353.149 297.083 353.936C294.929 355.256 294.522 358.802 296.849 360.306C298.882 361.596 304.238 363.13 309.99 361.749C313.131 360.997 316.698 357.817 320.783 357.685C323.375 357.593 328.304 357.065 330.052 355.165C330.692 352.33 329.991 351.528 329.412 349.069C329.102 347.708 328.938 346.319 328.924 344.924C328.924 344.192 329.412 342.089 327.907 341.876L327.755 343.45C327.755 343.45 327.46 343.979 325.855 344.263C325.336 344.355 324.93 345.035 324.655 345.655C324.381 346.275 324.208 346.752 323.639 346.742C323.462 346.717 323.294 346.646 323.153 346.535C323.012 346.425 322.903 346.279 322.836 346.112C322.714 345.781 322.615 345.442 322.541 345.096C322.336 344.543 322.012 344.04 321.593 343.625C321.173 343.209 320.668 342.889 320.112 342.688C319.191 342.377 318.236 342.176 317.267 342.089C316.535 341.977 315.925 341.662 315.234 342.292C315.102 342.436 314.989 342.597 314.899 342.77Z" fill="#37474F"/>
<path d="M356.597 221.926C357.614 237.441 358.152 246.473 360.927 288.81C362.969 296.055 364.266 303.49 364.799 310.999C365.348 320.367 366.679 348.591 366.679 348.591C366.679 348.591 359.128 354.789 350.418 351.924C350.418 351.924 342.512 310.43 339.747 297.486C337.105 285.061 335.072 271.477 335.072 271.477L333.111 288.81C333.111 288.81 333.456 296.521 333.212 308.033C333.091 314.19 330.164 347.514 330.164 347.514C330.164 347.514 319.564 352.33 312.409 346.143C312.409 346.143 311.891 292.102 311.779 286.534C311.657 280.174 312.795 216.216 312.795 216.216L356.597 221.926Z" fill="#455A64"/>
<path d="M335.032 271.487L329.615 243.11C329.615 243.11 321.24 242.378 316.616 237.705C316.616 237.705 317.44 242.287 327.968 245.03L333.202 271.162L333.111 288.81L335.032 271.487Z" fill="#37474F"/>
<path d="M366.435 343.501C363.216 346.288 359.076 347.78 354.819 347.687C354.819 347.687 362.035 346.61 366.364 341.855L366.435 343.501Z" fill="#37474F"/>
<path d="M330.499 343.583C330.499 343.583 323.111 346.163 316.881 344.192C316.881 344.192 321.688 347.423 330.387 344.771L330.499 343.583Z" fill="#37474F"/>
<path d="M252.569 164.197C252.517 163.954 252.413 163.725 252.264 163.526C252.006 163.058 251.876 162.529 251.886 161.994C251.897 161.459 252.049 160.936 252.325 160.478C252.505 160.254 252.655 160.009 252.773 159.747C252.976 159.188 252.722 158.558 252.773 157.959C252.956 155.286 257.793 156.455 259.328 156.943C259.775 157.095 262.377 157.765 263.393 158.121C263.302 156.655 263.446 155.183 263.82 153.762C264.511 150.989 266.797 151.273 266.93 152.97C267.055 154.506 267.342 156.025 267.783 157.501C268.068 158.588 268.8 159.665 269.216 161.271C269.816 163.303 269.663 164.441 271.696 166.351C274.745 169.226 290.396 179.833 290.396 179.833C294.299 177.324 309.401 168.037 315.061 164.969C320.539 161.992 323.334 164.39 323.334 164.39L318.558 181.977C318.558 181.977 299.726 191.69 292.937 194.657C288.201 196.689 286.107 195.551 280.883 190.897C276.737 186.976 271.269 181.306 265.365 176.084C263.007 173.991 261.299 172.924 259.633 172.843C259.003 172.843 258.372 172.772 257.752 172.711C256.35 172.548 254.704 172.203 254.023 170.811C253.789 170.344 253.677 169.795 253.484 169.328C253.189 168.576 252.722 167.905 252.468 167.153C252.258 166.649 252.188 166.099 252.264 165.558C252.264 165.121 252.63 164.684 252.569 164.197Z" fill="#E8F5E9"/>
<path d="M324.33 163.039C319.513 163.039 317.643 163.039 311.525 166.513C305.407 169.988 293.475 177.882 293.475 177.882C293.475 177.882 298.821 180.859 299.888 191.426L319.198 182.363L324.33 163.039Z" fill="#455A64"/>
<path d="M261.533 159.737C263.129 160.123 263.627 161.129 263.738 163.374C263.799 164.705 264.358 167.133 265.873 168.017C265.172 167.992 264.495 167.754 263.931 167.336C263.2 166.676 263.007 166.615 262.651 167.042C262.388 167.328 262.061 167.548 261.696 167.682C261.957 167.943 262.127 168.283 262.18 168.649C262.233 169.015 262.167 169.388 261.99 169.714C261.37 170.913 258.25 171.146 255.608 169.998C255.608 169.998 259.846 171.014 260.69 169.632C261.533 168.251 259.257 166.747 257.641 166.412C257.641 166.412 261.706 167.092 262.234 165.741C262.763 164.39 261.035 163.506 258.637 163.069C258.637 163.069 261.99 163.445 262.478 162.277C262.661 161.811 262.665 161.295 262.491 160.826C262.317 160.357 261.976 159.97 261.533 159.737Z" fill="#C8E6C9"/>
<path d="M290.355 179.864C292.47 181.275 294.107 183.294 295.05 185.655C295.05 185.655 295.386 181.195 291.717 179L290.355 179.864Z" fill="#C8E6C9"/>
<path d="M312.216 180.412C312.815 168.454 317.633 163.628 324.33 163.038L339.381 162.022C343.447 162.967 354.016 164.999 354.016 164.999C358.396 166.31 361.476 177.73 360.449 184.232C359.423 190.735 357.278 195.693 356.679 206.635C356.852 216.998 357.004 219.051 357.004 223.115C347.644 229.058 322.501 230.298 312.612 224.334C312.612 224.334 312.439 214.316 312.236 207.936C311.891 196.993 312.013 184.527 312.216 180.412Z" fill="#4CAF4F"/>
<path d="M316.169 129.683C315.564 130.029 315.063 130.531 314.72 131.137C314.376 131.743 314.203 132.431 314.218 133.127C314.194 134.171 314.492 135.196 315.072 136.064C315.948 137.17 317.161 137.962 318.527 138.319C319.116 138.46 319.691 138.654 320.245 138.898C320.935 139.39 321.581 139.941 322.175 140.544C323.1 141.255 324.015 141.987 324.96 142.678C326.834 144.077 328.793 145.36 330.824 146.518C332.776 147.636 334.816 148.594 336.922 149.383C339.148 150.206 340.987 149.485 343.365 149.698L343.02 156.14C343.02 156.14 343.812 154.656 344.717 152.889C345.5 151.365 348.782 143.602 348.782 143.602C350.063 140.554 351.689 137.364 351.496 133.96C351.333 131.207 350.784 128.789 348.691 127.621C348.518 124.451 347.796 122.906 345.571 121.21C343.928 120.099 342.042 119.402 340.072 119.178C337.848 118.921 335.597 119 333.395 119.411C330.103 119.94 326.81 120.783 323.476 120.61C321.695 120.42 319.894 120.534 318.151 120.945C317.043 121.305 316.082 122.012 315.41 122.962C314.737 123.913 314.391 125.055 314.421 126.219C314.35 127.428 315.315 129.419 316.169 129.683Z" fill="#37474F"/>
<path d="M337.024 130.506C337.024 132.538 338.894 135.413 341.739 137.892C341.403 139.773 341.455 141.702 341.892 143.562C342.066 144.14 342.334 144.685 342.684 145.177C342.814 145.383 342.988 145.557 343.194 145.687C343.4 145.818 343.632 145.9 343.873 145.929C344.534 145.929 344.798 145.584 345.002 145.065C345.302 144.409 345.641 143.771 346.018 143.155C346.186 142.893 346.38 142.647 346.597 142.424C347.613 141.499 350.551 140.392 351.923 143.521C353.295 146.65 350.723 151.08 348.345 151.741C344.28 152.889 343.355 150.095 343.355 150.095L343.426 163.648C342.278 167.082 335.916 170.425 330.794 169.744C325.672 169.064 327.298 165.975 329.381 163.882L329.117 159.178C327.293 159.358 325.454 159.29 323.649 158.975C321.525 158.568 319.777 156.577 318.893 153.336C317.484 147.161 317.277 140.773 318.283 134.519C319.055 130.699 320.001 129.053 320.458 128.606C320.458 129.439 322.054 131.989 326.19 132.558C330.56 133.188 333.873 131.807 337.024 130.506Z" fill="#E8F5E9"/>
<path d="M329.096 159.198C332.877 158.853 335.946 158.334 338.081 157.166C339.646 156.343 340.997 153.773 341.404 152.858C341.404 152.858 341.302 156.374 339.198 158.324C336.231 161.078 329.208 161.078 329.208 161.078L329.096 159.198Z" fill="#C8E6C9"/>
<path d="M331.078 141.946C331.08 142.215 331.161 142.477 331.311 142.7C331.461 142.923 331.673 143.097 331.921 143.201C332.169 143.304 332.442 143.333 332.706 143.283C332.97 143.233 333.213 143.106 333.406 142.919C333.599 142.732 333.733 142.492 333.79 142.23C333.848 141.968 333.827 141.694 333.731 141.443C333.635 141.192 333.467 140.976 333.248 140.819C333.029 140.663 332.77 140.575 332.501 140.565C332.317 140.562 332.134 140.596 331.963 140.664C331.792 140.732 331.636 140.833 331.503 140.961C331.371 141.089 331.266 141.242 331.193 141.411C331.12 141.58 331.081 141.762 331.078 141.946Z" fill="#263238"/>
<path d="M331.576 137.466L334.9 138.837C335.073 138.384 335.064 137.881 334.874 137.434C334.685 136.987 334.33 136.631 333.883 136.44C333.665 136.35 333.431 136.306 333.195 136.31C332.959 136.313 332.726 136.364 332.511 136.46C332.295 136.556 332.101 136.695 331.941 136.867C331.78 137.04 331.656 137.244 331.576 137.466Z" fill="#263238"/>
<path d="M332.877 149.343L327.796 151.375C327.916 151.715 328.104 152.028 328.349 152.294C328.594 152.56 328.89 152.773 329.22 152.921C329.549 153.07 329.906 153.149 330.267 153.156C330.628 153.163 330.987 153.096 331.322 152.96C331.996 152.672 332.534 152.135 332.823 151.462C333.112 150.789 333.132 150.03 332.877 149.343Z" fill="#388E3B"/>
<path d="M329.92 152.909C329.915 152.994 329.915 153.078 329.92 153.163C330.397 153.24 330.885 153.184 331.332 153C331.844 152.781 332.28 152.415 332.584 151.949C332.888 151.482 333.046 150.936 333.04 150.379C332.86 150.339 332.676 150.318 332.491 150.318C331.807 150.323 331.153 150.599 330.672 151.084C330.19 151.569 329.92 152.225 329.92 152.909Z" fill="#C8E6C9"/>
<path d="M319.137 138.756L322.419 137.486C322.344 137.27 322.225 137.072 322.071 136.904C321.917 136.735 321.731 136.599 321.523 136.504C321.315 136.41 321.09 136.358 320.862 136.352C320.633 136.346 320.406 136.386 320.194 136.47C319.752 136.635 319.392 136.967 319.194 137.395C318.997 137.824 318.976 138.313 319.137 138.756Z" fill="#263238"/>
<path d="M319.98 141.652C319.969 141.836 319.995 142.021 320.057 142.195C320.118 142.37 320.213 142.53 320.337 142.667C320.461 142.804 320.611 142.915 320.778 142.994C320.946 143.073 321.127 143.117 321.312 143.125C321.597 143.145 321.881 143.079 322.129 142.936C322.377 142.794 322.576 142.58 322.701 142.323C322.826 142.066 322.872 141.778 322.832 141.495C322.791 141.212 322.668 140.947 322.476 140.735C322.284 140.523 322.034 140.373 321.756 140.305C321.479 140.236 321.187 140.252 320.919 140.351C320.65 140.449 320.418 140.626 320.25 140.858C320.083 141.089 319.989 141.366 319.98 141.652Z" fill="#263238"/>
<path d="M327.277 148.672L322.216 147.717L326.993 139.63L327.277 148.672Z" fill="#C8E6C9"/>
<path d="M354.89 165.243C361.222 166.341 365.053 168.373 366.679 173.371C368.986 180.483 375.44 200.631 376.771 207.794C377.584 212.193 378.854 214.977 375.125 217.872C366.236 224.302 356.957 230.172 347.339 235.449C338.883 239.879 326.119 240.753 326.119 240.753L335.377 235.155L337.024 232.015L361.771 210.1L352.421 182.485C352.421 182.485 350.063 168.291 354.89 165.243Z" fill="#E8F5E9"/>
<path d="M361.77 210.1C363.782 209.064 366.012 208.527 368.275 208.535C368.275 208.535 366.08 206.645 361.232 208.535L361.77 210.1Z" fill="#C8E6C9"/>
<path d="M354.016 164.999C356.913 165.538 360.114 165.853 363.061 167.722C366.008 169.592 366.547 171.857 368.813 178.837C371.08 185.817 373.752 196.109 373.752 196.109C373.752 196.109 368.204 200.803 358.65 200.935C358.65 200.935 353.945 187.88 352.786 184.974C351.628 182.068 348.711 172.701 354.016 164.999Z" fill="#455A64"/>
<path d="M343.813 227.717V228.591C343.822 229.022 343.718 229.448 343.511 229.826C343.304 230.204 343.002 230.521 342.634 230.745L319.564 244.746C319.19 244.956 318.768 245.066 318.339 245.066C317.91 245.066 317.488 244.956 317.114 244.746L273.658 220.951C273.282 220.74 272.967 220.436 272.745 220.067C272.522 219.698 272.399 219.278 272.387 218.848V218.258L318.314 243.435L343.813 227.717Z" fill="#4CAF4F"/>
<g opacity="0.5">
<path opacity="0.5" d="M343.813 227.717V228.591C343.822 229.022 343.718 229.448 343.511 229.826C343.304 230.204 343.002 230.521 342.634 230.745L319.564 244.746C319.19 244.956 318.768 245.066 318.339 245.066C317.91 245.066 317.488 244.956 317.114 244.746L273.658 220.951C273.282 220.74 272.967 220.436 272.745 220.067C272.522 219.698 272.399 219.278 272.387 218.848V218.258L318.314 243.435L343.813 227.717Z" fill="white"/>
</g>
<g opacity="0.1">
<path opacity="0.1" d="M343.813 227.717V228.591C343.822 229.022 343.718 229.448 343.511 229.826C343.304 230.204 343.002 230.521 342.634 230.745L319.564 244.746C319.19 244.956 318.768 245.066 318.339 245.066C317.91 245.066 317.488 244.956 317.114 244.746L273.658 220.951C273.282 220.74 272.967 220.436 272.745 220.067C272.522 219.698 272.399 219.278 272.387 218.848V218.258L318.314 243.435L343.813 227.717Z" fill="#103E13"/>
</g>
<path d="M272.377 218.258L297.49 203.018C297.712 202.891 297.965 202.824 298.221 202.824C298.478 202.824 298.73 202.891 298.953 203.018L343.67 227.524C343.719 227.553 343.759 227.594 343.787 227.643C343.814 227.692 343.829 227.747 343.829 227.804C343.829 227.86 343.814 227.915 343.787 227.964C343.759 228.013 343.719 228.054 343.67 228.083L318.314 243.476L272.377 218.258Z" fill="#4CAF4F"/>
<g opacity="0.85">
<path opacity="0.85" d="M272.377 218.258L297.49 203.018C297.712 202.891 297.965 202.824 298.221 202.824C298.478 202.824 298.73 202.891 298.953 203.018L343.67 227.524C343.719 227.553 343.759 227.594 343.787 227.643C343.814 227.692 343.829 227.747 343.829 227.804C343.829 227.86 343.814 227.915 343.787 227.964C343.759 228.013 343.719 228.054 343.67 228.083L318.314 243.476L272.377 218.258Z" fill="white"/>
</g>
<path d="M318.09 241.047L331.637 232.828L291.412 210.781L277.794 218.959L318.09 241.047Z" fill="#4CAF4F"/>
<g opacity="0.6">
<path opacity="0.6" d="M318.09 241.047L331.637 232.828L291.412 210.781L277.794 218.959L318.09 241.047Z" fill="white"/>
</g>
<path d="M324.757 219.112L324.503 219.264L317.866 223.298L305.752 216.653L305.498 216.521L312.389 212.335L324.757 219.112Z" fill="#4CAF4F"/>
<path d="M324.503 219.264L317.866 223.298L305.752 216.653L312.399 212.63L324.503 219.264Z" fill="#4CAF4F"/>
<g opacity="0.6">
<path opacity="0.6" d="M324.503 219.264L317.866 223.298L305.752 216.653L312.399 212.63L324.503 219.264Z" fill="white"/>
</g>
<path d="M318.303 243.435V245.061C317.875 245.075 317.45 244.973 317.074 244.766L273.658 220.951C273.282 220.74 272.967 220.436 272.745 220.067C272.522 219.698 272.399 219.278 272.387 218.848V218.258L318.303 243.435Z" fill="#4CAF4F"/>
<g opacity="0.03">
<path opacity="0.03" d="M318.303 243.435V245.061C317.875 245.075 317.45 244.973 317.074 244.766L273.658 220.951C273.282 220.74 272.967 220.436 272.745 220.067C272.522 219.698 272.399 219.278 272.387 218.848V218.258L318.303 243.435Z" fill="white"/>
</g>
<g opacity="0.2">
<path opacity="0.2" d="M318.303 243.435V245.061C317.875 245.075 317.45 244.973 317.074 244.766L273.658 220.951C273.282 220.74 272.967 220.436 272.745 220.067C272.522 219.698 272.399 219.278 272.387 218.848V218.258L318.303 243.435Z" fill="#103E13"/>
</g>
<path d="M317.623 243.811C317.221 243.979 316.786 244.053 316.351 244.029C315.916 244.004 315.493 243.881 315.112 243.669L271.859 219.955C271.48 219.745 271.152 219.454 270.899 219.103C270.646 218.752 270.474 218.349 270.395 217.923L265.11 190.146C265.096 189.987 265.096 189.827 265.11 189.668C265.101 189.284 265.167 188.902 265.307 188.545C265.447 188.187 265.656 187.861 265.924 187.585L310.823 212.233C311.102 212.383 311.343 212.593 311.529 212.848C311.716 213.103 311.843 213.396 311.901 213.707L317.623 243.811Z" fill="#4CAF4F"/>
<g opacity="0.4">
<path opacity="0.4" d="M317.623 243.811C317.221 243.979 316.786 244.053 316.351 244.029C315.916 244.004 315.493 243.881 315.112 243.669L271.859 219.955C271.48 219.745 271.152 219.454 270.899 219.103C270.646 218.752 270.474 218.349 270.395 217.923L265.11 190.146C265.096 189.987 265.096 189.827 265.11 189.668C265.101 189.284 265.167 188.902 265.307 188.545C265.447 188.187 265.656 187.861 265.924 187.585L310.823 212.233C311.102 212.383 311.343 212.593 311.529 212.848C311.716 213.103 311.843 213.396 311.901 213.707L317.623 243.811Z" fill="white"/>
</g>
<path d="M318.303 243.435L318.019 243.608C317.892 243.685 317.76 243.753 317.623 243.811L311.901 213.747C311.843 213.437 311.716 213.143 311.529 212.888C311.343 212.633 311.102 212.424 310.823 212.274L265.873 187.626C266.042 187.443 266.237 187.286 266.452 187.158L311.504 211.847C311.781 212.002 312.02 212.214 312.206 212.471C312.392 212.727 312.52 213.02 312.582 213.331L318.303 243.435Z" fill="#4CAF4F"/>
<g opacity="0.6">
<path opacity="0.6" d="M318.303 243.435L318.019 243.608C317.892 243.685 317.76 243.753 317.623 243.811L311.901 213.747C311.843 213.437 311.716 213.143 311.529 212.888C311.343 212.633 311.102 212.424 310.823 212.274L265.873 187.626C266.042 187.443 266.237 187.286 266.452 187.158L311.504 211.847C311.781 212.002 312.02 212.214 312.206 212.471C312.392 212.727 312.52 213.02 312.582 213.331L318.303 243.435Z" fill="white"/>
</g>
<path d="M311.484 212.833L312.155 212.427C312.367 212.69 312.513 213 312.582 213.331L318.303 243.435L318.019 243.608C317.892 243.685 317.76 243.753 317.623 243.811L311.901 213.747C311.836 213.414 311.694 213.1 311.484 212.833Z" fill="#4CAF4F"/>
<path opacity="0.5" d="M311.484 212.833L312.155 212.427C312.367 212.69 312.513 213 312.582 213.331L318.303 243.435L318.019 243.608C317.892 243.685 317.76 243.753 317.623 243.811L311.901 213.747C311.836 213.414 311.694 213.1 311.484 212.833Z" fill="white"/>
<path opacity="0.1" d="M311.484 212.833L312.155 212.427C312.367 212.69 312.513 213 312.582 213.331L318.303 243.435L318.019 243.608C317.892 243.685 317.76 243.753 317.623 243.811L311.901 213.747C311.836 213.414 311.694 213.1 311.484 212.833Z" fill="#103E13"/>
<path d="M292.998 218.604C292.275 216.287 290.688 214.337 288.567 213.158C286.483 212.02 285.071 212.589 285.426 214.459C285.782 216.328 287.764 218.746 289.857 219.894C291.951 221.042 293.353 220.463 292.998 218.604Z" fill="#455A64"/>
<path d="M344.656 225.259C342.237 226.955 338.975 225.584 335.763 225.97C332.552 226.356 329.808 227.148 327.226 227.077C324.645 227.006 323.385 227.524 325.194 229.587C327.003 231.649 332.176 230.461 333.578 231.091C333.978 231.324 334.319 231.645 334.576 232.029C334.833 232.414 334.999 232.852 335.062 233.31C335.124 233.768 335.082 234.234 334.938 234.674C334.793 235.113 334.551 235.514 334.229 235.845C332.714 237.603 342.847 234.21 344.199 232.127C345.55 230.044 346.485 225.523 344.656 225.259Z" fill="#E8F5E9"/>
</svg>
